<?xml version="1.0" encoding="utf-8" ?>
<svg xmlns="http://www.w3.org/2000/svg" xmlns:xlink="http://www.w3.org/1999/xlink" width="3136" height="3136">
	<path fill="#73447B" transform="scale(5.52113 5.52113)" d="M0 0L243.887 0L267.873 0L568 0L568 525.387L568 534.915L568 568L535.217 568L524.902 568L0 568L0 269.495L0 239.388L0 0ZM253.68 19.5443Q242.202 19.7179 230.785 20.9194Q219.368 22.121 208.105 24.3408Q205.913 24.7909 203.729 25.2824Q201.546 25.774 199.372 26.3067Q197.198 26.8395 195.035 27.4133Q192.872 27.9871 190.72 28.6018Q188.568 29.2165 186.428 29.8718Q184.288 30.5271 182.161 31.2227Q180.034 31.9184 177.92 32.6542Q175.807 33.3901 173.707 34.1658Q171.608 34.9415 169.524 35.7568Q167.439 36.5721 165.371 37.4267Q163.302 38.2813 161.251 39.1749Q159.199 40.0685 157.164 41.0008Q155.129 41.9331 153.113 42.9037Q151.096 43.8744 149.098 44.883Q147.1 45.8917 145.122 46.9379Q143.144 47.9842 141.185 49.0677Q139.227 50.1513 137.29 51.2717Q135.352 52.3921 133.436 53.549Q131.521 54.7059 129.627 55.8988Q127.733 57.0918 125.863 58.3204Q123.992 59.5489 122.145 60.8127Q120.298 62.0765 118.475 63.375Q116.652 64.6735 114.854 66.0063Q113.056 67.339 111.284 68.7056Q109.512 70.0722 107.765 71.4721Q106.019 72.8719 104.3 74.3046Q102.58 75.7373 100.888 77.2023Q99.1965 78.6672 97.5326 80.164Q95.8687 81.6607 94.2334 83.1887Q92.5981 84.7166 90.9921 86.2753Q89.386 87.8339 87.8097 89.4227Q86.2334 91.0115 84.6875 92.6298C43.9239 135.345 18.2042 195.875 19.6911 255.284C19.9959 267.463 20.686 279.62 22.5745 291.668Q22.9438 294.044 23.3615 296.411Q23.7792 298.779 24.2451 301.138Q24.7109 303.496 25.2247 305.845Q25.7386 308.194 26.3001 310.532Q26.8617 312.869 27.4708 315.195Q28.08 317.521 28.7363 319.834Q29.3927 322.147 30.0961 324.446Q30.7995 326.745 31.5496 329.029Q32.2997 331.313 33.0962 333.582Q33.8927 335.85 34.7352 338.102Q35.5778 340.354 36.4661 342.588Q37.3543 344.822 38.288 347.038Q39.2216 349.253 40.2002 351.45Q41.1787 353.646 42.2019 355.821Q43.225 357.997 44.2923 360.151Q45.3595 362.306 46.4705 364.438Q47.5814 366.57 48.7356 368.679Q49.8898 370.788 51.0867 372.874Q52.2836 374.959 53.5227 377.019Q54.7619 379.079 56.0428 381.114Q57.3237 383.149 58.6458 385.157Q59.9679 387.165 61.3306 389.146Q62.6934 391.126 64.0962 393.079Q65.499 395.032 66.9414 396.955Q68.3837 398.879 69.8649 400.772Q71.3461 402.666 72.8657 404.529Q74.3852 406.393 75.9424 408.224Q77.4995 410.056 79.0937 411.856Q80.6879 413.656 82.3184 415.423Q83.949 417.19 85.6152 418.923Q87.2814 420.656 88.9826 422.355Q90.6837 424.054 92.4192 425.718Q94.2858 427.521 96.1921 429.283Q98.0984 431.044 100.043 432.763Q101.988 434.481 103.971 436.156Q105.954 437.831 107.974 439.461Q109.993 441.092 112.049 442.676Q114.104 444.261 116.195 445.8Q118.285 447.339 120.409 448.83Q122.533 450.322 124.689 451.766Q126.846 453.21 129.034 454.606Q131.223 456.002 133.442 457.348Q135.66 458.695 137.909 459.992Q140.157 461.289 142.434 462.535Q144.71 463.782 147.014 464.977Q149.318 466.173 151.648 467.317Q153.977 468.46 156.332 469.552Q158.687 470.644 161.065 471.683Q163.444 472.722 165.845 473.708Q168.246 474.693 170.668 475.625Q173.091 476.557 175.533 477.435Q177.976 478.313 180.437 479.137Q182.899 479.96 185.378 480.728Q187.857 481.496 190.353 482.209Q192.848 482.922 195.359 483.579Q197.87 484.236 200.395 484.837Q202.92 485.438 205.458 485.983Q207.996 486.528 210.545 487.016Q213.094 487.504 215.654 487.935Q218.213 488.366 220.782 488.74Q223.35 489.114 225.926 489.43Q228.502 489.747 231.085 490.006Q233.667 490.266 236.255 490.467Q238.842 490.669 241.434 490.813C246.48 491.067 251.633 491.51 256.682 491.391C256.934 491.385 257.185 491.375 257.437 491.361C272.412 490.697 286.962 489.734 301.719 486.872Q304.027 486.402 306.325 485.887Q308.624 485.372 310.911 484.811Q313.199 484.25 315.475 483.644Q317.751 483.038 320.015 482.387Q322.278 481.737 324.529 481.041Q326.779 480.346 329.015 479.606Q331.251 478.866 333.472 478.082Q335.694 477.298 337.899 476.47Q340.104 475.643 342.292 474.771Q344.48 473.9 346.651 472.986Q348.822 472.072 350.974 471.114Q353.126 470.157 355.259 469.158Q357.391 468.158 359.504 467.117Q361.617 466.075 363.708 464.992Q365.8 463.909 367.869 462.785Q369.939 461.661 371.986 460.495Q374.033 459.33 376.057 458.125Q378.081 456.92 380.08 455.675Q382.079 454.43 384.054 453.145Q386.028 451.861 387.976 450.538Q389.925 449.214 391.847 447.853Q393.769 446.491 395.664 445.092Q397.558 443.693 399.425 442.256Q401.291 440.82 403.129 439.347Q404.967 437.874 406.775 436.364Q408.584 434.855 410.362 433.31Q412.14 431.766 413.887 430.186Q415.634 428.607 417.35 426.993Q419.065 425.379 420.749 423.731Q422.432 422.084 424.082 420.403Q425.733 418.723 427.35 417.01Q428.966 415.297 430.549 413.553C470.898 369.184 494.13 307.521 491.051 247.443Q490.404 232.26 488.058 217.246Q487.66 214.79 487.21 212.344Q486.76 209.897 486.258 207.461Q485.756 205.024 485.203 202.599Q484.65 200.173 484.045 197.76Q483.441 195.347 482.786 192.947Q482.13 190.547 481.424 188.162Q480.718 185.777 479.962 183.407Q479.206 181.037 478.399 178.683Q477.593 176.33 476.737 173.994Q475.881 171.658 474.976 169.341Q474.07 167.024 473.116 164.727Q472.162 162.429 471.16 160.152Q470.157 157.876 469.107 155.621Q468.057 153.366 466.959 151.133Q465.861 148.901 464.716 146.692Q463.571 144.484 462.379 142.3Q461.188 140.116 459.951 137.958Q458.713 135.8 457.43 133.669Q456.148 131.537 454.82 129.433Q453.492 127.329 452.121 125.254Q450.749 123.179 449.333 121.133Q447.918 119.088 446.459 117.072Q445.001 115.057 443.5 113.073Q441.999 111.089 440.457 109.137Q438.915 107.185 437.331 105.267Q435.748 103.348 434.124 101.463Q432.5 99.5784 430.837 97.7284Q429.174 95.8785 427.472 94.0641Q425.77 92.2497 424.03 90.4718Q422.29 88.6939 420.513 86.9532Q418.736 85.2125 416.922 83.5098Q415.108 81.8071 413.259 80.1432Q411.58 78.6226 409.872 77.1349Q408.164 75.6472 406.427 74.1928Q404.69 72.7385 402.926 71.3181Q401.161 69.8978 399.37 68.5119Q397.578 67.126 395.76 65.7751Q393.941 64.4242 392.097 63.1088Q390.253 61.7935 388.384 60.5141Q386.514 59.2348 384.621 57.9919Q382.727 56.749 380.809 55.5431Q378.892 54.3372 376.951 53.1687Q375.011 52.0002 373.048 50.8696Q371.085 49.7389 369.101 48.6465Q367.116 47.5542 365.111 46.5005Q363.106 45.4468 361.081 44.4322Q359.055 43.4176 357.011 42.4425Q354.966 41.4674 352.903 40.5321Q350.84 39.5968 348.759 38.7016Q346.679 37.8065 344.581 36.9519Q342.483 36.0973 340.369 35.2836Q338.255 34.4698 336.126 33.6972Q333.996 32.9246 331.852 32.1935Q329.708 31.4623 327.551 30.7728Q325.393 30.0834 323.222 29.4359Q321.052 28.7884 318.869 28.1831Q316.686 27.5779 314.492 27.0151Q312.298 26.4522 310.093 25.9321Q307.888 25.4119 305.674 24.9346Q303.46 24.4573 301.237 24.023Q299.013 23.5887 296.782 23.1976Q294.551 22.8065 292.313 22.4588Q290.074 22.111 287.83 21.8068Q285.585 21.5025 283.335 21.2418C273.591 20.088 263.5 19.2294 253.68 19.5443ZM0 269.495L0 568L524.902 568C518.255 565.585 514.096 565.225 507.972 560.767C503.162 557.266 499.06 552.673 494.871 548.461L477.084 530.61C453.687 507.175 430.532 483.437 406.854 460.288C403 463.417 398.773 466.18 394.628 468.907Q390.198 471.8 385.651 474.506Q381.105 477.212 376.45 479.727Q371.794 482.241 367.039 484.56Q362.283 486.878 357.434 488.997Q352.586 491.115 347.654 493.03Q342.722 494.945 337.714 496.653Q332.706 498.361 327.632 499.859Q322.557 501.357 317.425 502.642Q314.356 503.407 311.269 504.096Q308.183 504.786 305.08 505.399Q301.977 506.012 298.86 506.548Q295.743 507.084 292.614 507.543Q289.484 508.002 286.345 508.383Q283.205 508.765 280.057 509.069Q276.909 509.373 273.754 509.599Q270.6 509.825 267.44 509.974Q264.281 510.122 261.119 510.192Q257.957 510.262 254.794 510.255Q251.631 510.247 248.47 510.161Q245.308 510.075 242.15 509.911Q238.991 509.747 235.838 509.505Q232.684 509.263 229.538 508.944Q226.391 508.624 223.253 508.227Q220.116 507.83 216.989 507.355Q213.862 506.881 210.747 506.329Q207.633 505.778 204.533 505.149Q201.434 504.521 198.35 503.816Q195.267 503.112 192.202 502.331Q189.137 501.551 186.092 500.695Q183.047 499.839 180.025 498.908Q177.002 497.977 174.003 496.972Q171.004 495.967 168.031 494.888Q165.058 493.81 162.113 492.658Q159.167 491.506 156.251 490.281Q153.335 489.057 150.45 487.761Q147.565 486.466 144.712 485.099Q141.86 483.732 139.042 482.295Q136.225 480.859 133.444 479.353Q130.662 477.847 127.919 476.273Q125.176 474.699 122.472 473.058Q119.808 471.451 117.184 469.779Q114.56 468.107 111.978 466.371Q109.395 464.635 106.857 462.836Q104.318 461.037 101.825 459.177Q99.3309 457.316 96.8838 455.394Q94.4367 453.473 92.0376 451.491Q89.6384 449.51 87.2888 447.471Q84.9391 445.431 82.6403 443.334Q80.3414 441.238 78.0949 439.085Q75.8483 436.932 73.6553 434.725Q71.4624 432.518 69.3243 430.258Q67.1863 427.997 65.1045 425.685Q63.0227 423.372 60.9984 421.01Q58.9741 418.647 57.0085 416.235Q55.0429 413.823 53.1372 411.363Q51.2315 408.904 49.3869 406.398Q47.5422 403.893 45.7598 401.342Q43.9773 398.792 42.2581 396.199Q40.5388 393.606 38.8839 390.971Q37.229 388.336 35.6393 385.661Q34.0497 382.987 32.5263 380.274Q31.0029 377.561 29.5466 374.811Q28.0904 372.062 26.7022 369.277Q25.3141 366.493 23.9948 363.675Q22.6755 360.857 21.4259 358.007Q20.1763 355.158 18.9971 352.279Q17.818 349.399 16.71 346.492Q15.602 343.585 14.5658 340.651Q13.5296 337.717 12.5659 334.759Q11.6022 331.8 10.7115 328.819Q9.82082 325.838 9.00372 322.836Q8.18661 319.833 7.44357 316.812Q3.75372 301.754 1.83339 286.37C1.19123 281.013 1.40572 274.989 0.0811989 269.793C0.0557448 269.693 0.0270663 269.594 0 269.495ZM267.873 0C267.97 0.026598 268.067 0.0549602 268.165 0.079794C270.732 0.732067 273.594 0.700343 276.233 0.893366Q281.352 1.29003 286.456 1.84501Q301.211 3.50378 315.583 7.23541Q318.65 7.98257 321.698 8.80534Q324.745 9.62812 327.772 10.526Q330.798 11.4239 333.802 12.3963Q336.805 13.3687 339.783 14.4151Q342.762 15.4615 345.713 16.5812Q348.665 17.7009 351.588 18.8933Q354.51 20.0856 357.403 21.3499Q360.296 22.6141 363.156 23.9495Q366.017 25.2849 368.843 26.6906Q371.67 28.0963 374.461 29.5714Q377.251 31.0466 380.005 32.5903Q382.759 34.134 385.473 35.7454Q388.188 37.3567 390.862 39.0346Q393.536 40.7126 396.167 42.4561Q398.799 44.1997 401.387 46.0078Q403.974 47.8159 406.516 49.6874Q409.059 51.5589 411.554 53.4927Q414.049 55.4265 416.496 57.4214Q418.942 59.4163 421.339 61.4711Q423.735 63.5259 426.08 65.6393Q428.425 67.7527 430.717 69.9234Q433.009 72.0942 435.247 74.321Q437.484 76.5477 439.666 78.8291Q441.848 81.1105 443.973 83.4452Q446.098 85.7798 448.164 88.1663Q450.23 90.5527 452.237 92.9896Q454.244 95.4264 456.19 97.9121Q458.136 100.398 460.02 102.931Q461.904 105.464 463.724 108.043Q465.545 110.622 467.301 113.245Q469.058 115.868 470.749 118.534Q472.439 121.199 474.064 123.906Q475.669 126.592 477.208 129.316Q478.748 132.04 480.22 134.801Q481.692 137.562 483.096 140.358Q484.501 143.154 485.837 145.984Q487.172 148.813 488.438 151.674Q489.705 154.536 490.901 157.427Q492.097 160.318 493.222 163.238Q494.347 166.157 495.4 169.104Q496.454 172.05 497.435 175.021Q498.416 177.992 499.324 180.986Q500.233 183.98 501.068 186.996Q501.903 190.011 502.664 193.046Q503.425 196.081 504.112 199.134Q504.799 202.186 505.411 205.255Q506.023 208.323 506.56 211.406Q507.097 214.488 507.559 217.583Q508.02 220.678 508.406 223.783Q508.792 226.888 509.102 230.001Q509.412 233.115 509.646 236.235Q509.88 239.355 510.037 242.48Q510.195 245.605 510.276 248.733Q510.358 251.861 510.363 254.99Q510.367 258.119 510.296 261.247Q510.225 264.375 510.077 267.5Q509.929 270.626 509.705 273.747Q509.481 276.867 509.181 279.982Q508.88 283.096 508.504 286.203Q508.128 289.309 507.676 292.405Q507.224 295.501 506.697 298.585Q506.17 301.669 505.567 304.74Q504.965 307.81 504.288 310.865Q503.611 313.92 502.859 316.957Q501.605 321.971 500.147 326.929Q498.689 331.887 497.029 336.781Q495.369 341.675 493.51 346.497Q491.651 351.319 489.597 356.061Q487.542 360.803 485.295 365.457Q483.048 370.111 480.612 374.669Q478.176 379.227 475.556 383.681Q472.935 388.136 470.135 392.479C467.098 397.27 464.061 402.38 460.443 406.753L531.338 477.724L550.139 496.511C553.725 500.078 557.95 503.631 560.9 507.727C565.223 513.73 565.986 518.599 568 525.387L568 0L267.873 0ZM0 0L0 239.388C1.16425 235.091 1.07316 229.443 1.54421 224.946C2.13578 219.298 3.15091 213.64 4.20082 208.059Q5.39166 201.735 6.90242 195.481Q8.41319 189.226 10.24 183.056Q12.0668 176.886 14.2048 170.817Q16.3429 164.748 18.7868 158.795Q21.2306 152.843 23.9739 147.022Q26.7172 141.201 29.7528 135.528Q32.7885 129.854 36.1086 124.342Q39.4287 118.83 43.0248 113.494Q44.6629 111.024 46.3584 108.593Q48.054 106.162 49.806 103.771Q51.558 101.38 53.3656 99.0311Q55.1732 96.6821 57.0353 94.3761Q58.8974 92.0701 60.813 89.8083Q62.7286 87.5465 64.6967 85.3303Q66.6648 83.114 68.6843 80.9445Q70.7038 78.775 72.7736 76.6533Q74.8433 74.5317 76.9622 72.4592Q79.0811 70.3866 81.248 68.3643Q83.4149 66.342 85.6286 64.371Q87.8423 62.4 90.1015 60.4814Q92.3608 58.5628 94.6643 56.6977Q96.9679 54.8326 99.3146 53.0219Q101.661 51.2113 104.05 49.4561Q106.438 47.701 108.867 46.0023Q111.296 44.3035 113.764 42.6622Q116.232 41.0209 118.738 39.4378Q121.244 37.8547 123.786 36.3308Q126.328 34.8069 128.905 33.343Q131.482 31.8791 134.093 30.4759Q136.704 29.0728 139.347 27.7312Q141.99 26.3896 144.664 25.1103Q147.337 23.831 150.04 22.6147Q152.743 21.3984 155.474 20.2458Q158.205 19.0932 160.962 18.0049Q163.719 16.9165 166.5 15.8931Q169.282 14.8697 172.087 13.9117Q174.892 12.9537 177.718 12.0617Q180.545 11.1697 183.392 10.3442Q186.238 9.51868 189.104 8.76009Q191.969 8.00149 194.851 7.31024Q209.959 3.64623 225.395 1.80478C231.368 1.12866 237.694 1.29103 243.568 0.0702455C243.675 0.0480941 243.781 0.0234152 243.887 0L0 0ZM448.33 421.836C439.893 431.141 431.387 440.275 421.638 448.252C429.94 456.036 437.844 464.315 445.894 472.367L490.071 516.571L506.865 533.377C509.946 536.459 512.96 539.764 516.271 542.593C518.235 544.271 520.28 545.625 522.651 546.658C528.449 548.152 533.464 548.156 538.768 545.06C542.958 542.614 545.92 538.851 547.137 534.136C548.356 529.41 547.771 524.193 545.275 519.984C542.336 515.03 537.195 510.84 533.116 506.765L516.89 490.567C494.003 467.724 470.81 445.075 448.33 421.836ZM568 534.915C567.267 537.623 566.694 540.362 565.729 543.003C562.785 551.06 557.093 558.358 549.637 562.678C546.484 564.504 543.191 565.688 539.694 566.678C538.266 567.083 536.531 567.319 535.217 568L568 568L568 534.915Z"/>
	<path fill="#73447B" transform="scale(5.52113 5.52113)" d="M244.136 38.7095Q245.354 38.6242 246.574 38.5604Q249.221 38.4515 251.87 38.4072Q254.519 38.363 257.168 38.3834Q259.818 38.4038 262.465 38.4889Q265.113 38.574 267.758 38.7237Q270.404 38.8734 273.044 39.0876Q275.685 39.3018 278.32 39.5805Q280.954 39.8591 283.581 40.2019Q286.208 40.5448 288.826 40.9517Q291.444 41.3586 294.051 41.8292Q296.658 42.2999 299.253 42.8341Q301.848 43.3682 304.429 43.9656Q307.01 44.563 309.576 45.2232Q312.142 45.8833 314.691 46.606Q317.24 47.3286 319.77 48.1132Q322.301 48.8979 324.811 49.744Q327.322 50.5902 329.811 51.4974Q332.3 52.4046 334.766 53.3723Q337.233 54.34 339.675 55.3676Q342.116 56.3952 344.533 57.4821Q346.949 58.5691 349.337 59.7146Q351.726 60.8602 354.086 62.0638Q356.447 63.2673 358.777 64.5281Q361.107 65.7889 363.405 67.1062Q365.704 68.4235 367.97 69.7965Q370.236 71.1696 372.467 72.5975Q374.699 74.0254 376.895 75.5074Q379.091 76.9894 381.25 78.5245Q383.409 80.0597 385.53 81.6471Q387.652 83.2345 389.733 84.8732Q391.815 86.5119 393.856 88.2009Q395.897 89.8899 397.896 91.6283Q399.896 93.3667 401.852 95.1533Q403.81 96.9312 405.723 98.7565Q407.637 100.582 409.505 102.453Q411.374 104.325 413.196 106.242Q415.018 108.158 416.793 110.119Q418.568 112.08 420.294 114.083Q422.02 116.086 423.697 118.132Q425.373 120.177 427 122.262Q428.626 124.347 430.201 126.472Q431.775 128.597 433.298 130.759Q434.82 132.922 436.289 135.121Q437.758 137.32 439.173 139.554Q440.588 141.788 441.947 144.057Q443.307 146.325 444.611 148.626Q445.915 150.926 447.162 153.258Q448.409 155.59 449.599 157.952Q450.789 160.314 451.921 162.704Q453.052 165.094 454.125 167.511Q455.198 169.929 456.212 172.371Q457.225 174.814 458.179 177.281Q459.132 179.747 460.025 182.237Q460.918 184.726 461.75 187.236Q462.581 189.747 463.351 192.276Q464.121 194.806 464.829 197.354Q465.538 199.902 466.183 202.467Q466.828 205.032 467.411 207.611Q467.994 210.191 468.513 212.784Q469.032 215.377 469.488 217.982Q469.944 220.587 470.336 223.202Q470.728 225.818 471.056 228.442Q471.384 231.066 471.647 233.697Q471.911 236.329 472.11 238.966Q472.309 241.603 472.444 244.244Q472.584 246.917 472.658 249.592Q472.732 252.268 472.74 254.944Q472.748 257.621 472.69 260.297Q472.632 262.973 472.508 265.646Q472.383 268.32 472.193 270.99Q472.003 273.659 471.746 276.324Q471.49 278.988 471.168 281.645Q470.846 284.302 470.459 286.95Q470.071 289.599 469.618 292.237Q469.165 294.874 468.647 297.5Q468.129 300.126 467.547 302.739Q466.964 305.351 466.317 307.948Q465.67 310.545 464.959 313.126Q464.248 315.706 463.473 318.268Q462.699 320.83 461.861 323.372Q461.024 325.914 460.123 328.435Q459.223 330.955 458.261 333.453Q457.299 335.95 456.275 338.423Q455.251 340.896 454.167 343.343Q453.083 345.79 451.938 348.21Q450.794 350.629 449.59 353.02Q448.385 355.41 447.123 357.77Q445.86 360.13 444.539 362.458Q443.219 364.786 441.841 367.081Q440.463 369.375 439.029 371.635Q437.595 373.895 436.106 376.119Q434.616 378.343 433.072 380.529Q431.528 382.716 429.931 384.863Q428.333 387.011 426.683 389.118Q425.033 391.225 423.332 393.291Q421.63 395.357 419.878 397.38Q418.126 399.404 416.324 401.383Q414.54 403.35 412.708 405.273Q410.876 407.196 408.997 409.073Q407.119 410.951 405.195 412.781Q403.271 414.612 401.302 416.395Q399.334 418.178 397.323 419.913Q395.311 421.647 393.258 423.331Q391.205 425.016 389.111 426.649Q387.017 428.283 384.883 429.865Q382.75 431.447 380.578 432.976Q378.407 434.505 376.199 435.98Q373.99 437.456 371.746 438.877Q369.503 440.297 367.225 441.663Q364.947 443.028 362.636 444.337Q360.325 445.647 357.983 446.899Q355.641 448.151 353.269 449.345Q350.897 450.54 348.496 451.676Q346.095 452.811 343.668 453.888Q341.24 454.965 338.786 455.982Q336.333 456.999 333.855 457.955Q331.378 458.911 328.877 459.807Q326.377 460.702 323.855 461.536Q321.334 462.37 318.793 463.142Q316.251 463.914 313.692 464.623Q311.133 465.333 308.557 465.979Q305.981 466.625 303.39 467.208Q300.799 467.792 298.194 468.311Q295.59 468.83 292.973 469.286Q290.357 469.741 287.73 470.132Q285.103 470.523 282.467 470.85Q279.831 471.177 277.189 471.439Q274.546 471.701 271.897 471.898Q269.249 472.095 266.596 472.227C257.37 472.398 248.351 472.587 239.121 471.875Q236.915 471.709 234.713 471.497Q232.511 471.286 230.313 471.03Q228.116 470.774 225.924 470.473Q223.733 470.172 221.548 469.826Q219.363 469.48 217.185 469.09Q215.008 468.7 212.838 468.265Q210.669 467.83 208.51 467.352Q206.35 466.873 204.2 466.35Q202.051 465.827 199.912 465.26Q197.774 464.693 195.648 464.083Q193.521 463.473 191.408 462.819Q189.294 462.165 187.195 461.469Q185.095 460.772 183.01 460.032Q180.925 459.293 178.855 458.511Q176.786 457.729 174.733 456.905Q172.68 456.081 170.644 455.216Q168.608 454.35 166.591 453.443Q164.573 452.535 162.574 451.587Q160.575 450.639 158.597 449.65Q156.618 448.661 154.659 447.632Q152.701 446.603 150.764 445.534Q148.827 444.466 146.913 443.357Q144.998 442.249 143.106 441.102Q141.215 439.955 139.347 438.77Q137.479 437.584 135.636 436.361Q133.793 435.137 131.975 433.876Q130.157 432.616 128.366 431.318Q126.574 430.02 124.809 428.686Q123.044 427.352 121.307 425.983Q119.57 424.613 117.861 423.208Q116.152 421.803 114.473 420.363Q112.793 418.924 111.143 417.45Q109.151 415.676 107.204 413.854Q105.256 412.031 103.354 410.161Q101.452 408.292 99.5962 406.376Q97.7405 404.46 95.9325 402.499Q94.1245 400.538 92.3652 398.533Q90.606 396.528 88.8965 394.481Q87.1871 392.433 85.5284 390.344Q83.8698 388.255 82.263 386.126Q80.6562 383.997 79.1022 381.83Q77.5483 379.662 76.048 377.456Q74.5478 375.251 73.1022 373.01Q71.6566 370.768 70.2666 368.492Q68.8765 366.215 67.5428 363.905Q66.2091 361.595 64.9326 359.253Q63.6561 356.911 62.4375 354.539Q61.2189 352.166 60.059 349.764Q58.8991 347.362 57.7986 344.933Q56.698 342.503 55.6576 340.047Q54.6171 337.591 53.6373 335.11Q52.6574 332.63 51.7389 330.126Q50.8204 327.621 49.9636 325.096Q49.1069 322.57 48.3125 320.023Q47.5181 317.477 46.7865 314.912Q46.055 312.347 45.3866 309.765Q44.7183 307.183 44.1137 304.585Q43.509 301.987 42.9684 299.375Q42.4277 296.763 41.9515 294.139Q41.4752 291.515 41.0636 288.879Q40.6519 286.244 40.3052 283.599Q39.9584 280.955 39.6768 278.302Q39.3951 275.65 39.1788 272.991Q38.9624 270.333 38.8114 267.67Q38.6603 265.004 38.5749 262.336Q38.4895 259.667 38.4697 256.997Q38.45 254.327 38.496 251.658Q38.542 248.988 38.6537 246.32Q38.7653 243.653 38.9426 240.988Q39.1199 238.324 39.3627 235.665Q39.6055 233.006 39.9137 230.354Q40.2218 227.702 40.5952 225.058Q40.9685 222.415 41.4068 219.781Q41.8451 217.147 42.3481 214.525Q42.8511 211.903 43.4184 209.294Q43.9858 206.685 44.6172 204.09Q45.2486 201.496 45.9437 198.918Q46.6387 196.34 47.397 193.78Q48.1553 191.22 48.9763 188.679Q49.7974 186.139 50.6807 183.619Q51.5641 181.099 52.5092 178.602Q53.4542 176.105 54.4605 173.632Q55.4667 171.159 56.5335 168.711Q57.6004 166.264 58.7271 163.843Q59.8538 161.422 61.0397 159.03Q62.2257 156.638 63.4702 154.276Q64.7146 151.913 66.0169 149.583Q67.3191 147.252 68.6783 144.953Q70.0375 142.655 71.4528 140.391Q72.8682 138.127 74.3388 135.899Q75.8094 133.67 77.3345 131.479Q78.8595 129.287 80.438 127.134Q82.0165 124.98 83.6475 122.866Q85.2785 120.752 86.9611 118.679Q88.6437 116.606 90.3767 114.575Q92.1098 112.544 93.8923 110.556Q95.6731 108.565 97.5025 106.618Q99.3318 104.672 101.209 102.771Q103.086 100.87 105.009 99.0167Q106.932 97.1628 108.9 95.3571Q110.869 93.5513 112.881 91.7947Q114.894 90.038 116.949 88.3316Q119.004 86.6252 121.101 84.9701Q123.197 83.3149 125.334 81.712Q127.471 80.1091 129.647 78.5594Q131.823 77.0098 134.036 75.5143Q136.249 74.0189 138.499 72.5785Q140.749 71.1381 143.033 69.7537Q145.318 68.3693 147.636 67.0418Q149.954 65.7142 152.304 64.4442Q154.654 63.1743 157.034 61.9628Q159.415 60.7512 161.825 59.5988Q164.235 58.4464 166.672 57.3539Q169.11 56.2613 171.574 55.2293Q174.038 54.1972 176.526 53.2263Q179.015 52.2554 181.526 51.3462Q184.038 50.4371 186.572 49.5902Q189.105 48.7433 191.659 47.9592Q194.212 47.1751 196.784 46.4543Q199.356 45.7335 201.946 45.0764Q204.535 44.4193 207.139 43.8264Q209.744 43.2334 212.362 42.7049Q214.981 42.1764 217.611 41.7127Q220.242 41.249 222.883 40.8504Q225.525 40.4518 228.175 40.1186Q230.826 39.7853 233.483 39.5176Q236.141 39.2498 238.805 39.0478Q241.468 38.8457 244.136 38.7095ZM72.4041 331.183C74.3112 335.016 75.9775 338.959 77.8624 342.803Q82.3348 351.882 87.7157 360.454Q88.8473 362.26 90.0173 364.041Q91.1874 365.822 92.3953 367.578Q93.6032 369.333 94.8484 371.063Q96.0937 372.792 97.3757 374.494Q98.6577 376.197 99.9759 377.871Q101.294 379.546 102.648 381.191Q104.002 382.837 105.39 384.454Q106.779 386.07 108.202 387.656Q109.625 389.243 111.082 390.798Q112.538 392.354 114.028 393.878Q115.517 395.401 117.039 396.893Q118.561 398.385 120.115 399.844Q121.668 401.302 123.253 402.727Q124.837 404.152 126.452 405.543Q128.066 406.934 129.711 408.29Q131.355 409.646 133.027 410.966Q134.7 412.287 136.401 413.571Q138.101 414.855 139.829 416.103Q141.557 417.35 143.311 418.561Q145.065 419.771 146.844 420.943Q148.624 422.116 150.428 423.25Q152.232 424.384 154.06 425.479Q155.889 426.574 157.74 427.629Q159.591 428.685 161.464 429.701Q163.338 430.717 165.232 431.692Q167.127 432.667 169.042 433.602Q170.957 434.537 172.892 435.43Q174.827 436.323 176.78 437.175Q178.734 438.027 180.705 438.836Q182.676 439.646 184.664 440.413Q186.653 441.181 188.657 441.905Q190.661 442.63 192.68 443.311Q194.984 444.081 197.306 444.795Q199.628 445.509 201.967 446.165Q204.305 446.822 206.66 447.421Q209.014 448.02 211.382 448.561Q213.75 449.102 216.131 449.585Q218.512 450.067 220.904 450.492Q223.296 450.916 225.697 451.281Q228.099 451.646 230.508 451.953Q232.918 452.259 235.335 452.506Q237.752 452.753 240.173 452.941Q242.595 453.129 245.021 453.257Q247.447 453.385 249.875 453.454Q252.304 453.523 254.733 453.532Q257.162 453.541 259.591 453.491Q262.019 453.44 264.446 453.33Q266.873 453.22 269.296 453.05Q271.719 452.881 274.138 452.652Q276.556 452.423 278.968 452.135Q281.38 451.847 283.784 451.499Q286.189 451.152 288.584 450.746Q290.979 450.339 293.363 449.875Q295.747 449.41 298.12 448.886Q300.492 448.363 302.85 447.782Q305.209 447.201 307.553 446.562Q309.896 445.923 312.224 445.227Q314.551 444.53 316.86 443.777Q319.17 443.024 321.46 442.214Q323.751 441.405 326.02 440.539Q328.29 439.674 330.538 438.753Q332.786 437.832 335.01 436.856Q337.235 435.88 339.435 434.85Q341.635 433.82 343.809 432.736C359.825 424.725 374.07 414.627 387.632 402.997C404.263 387.542 418.127 370.525 429.177 350.642Q432.448 344.647 435.276 338.432C436.385 336.029 437.374 333.311 438.787 331.092L196.111 331.075L114.705 331.075C100.671 331.075 86.417 330.58 72.4041 331.183ZM251.515 57.2783C238.548 57.8847 225.832 59.199 213.132 61.9454Q209.394 62.7695 205.69 63.7373Q201.987 64.7051 198.323 65.8151Q194.66 66.9251 191.042 68.1758Q187.424 69.4264 183.857 70.8158Q180.29 72.2052 176.779 73.7312Q173.269 75.2572 169.82 76.9177Q166.371 78.5781 162.988 80.3704Q159.606 82.1628 156.295 84.0843Q152.984 86.0059 149.75 88.0538Q146.516 90.1018 143.364 92.2731Q140.211 94.4444 137.145 96.7357Q134.078 99.0271 131.102 101.435Q128.127 103.843 125.246 106.364Q122.366 108.885 119.585 111.516Q116.804 114.146 114.126 116.882Q111.449 119.618 108.879 122.455C98.2035 134.193 89.2754 147.143 81.5057 160.95L259.455 160.947L372.406 160.948L409.814 160.946C416.426 160.945 423.082 161.123 429.687 160.892Q428.531 158.768 427.323 156.672Q426.116 154.577 424.858 152.512Q423.6 150.446 422.292 148.412Q420.983 146.378 419.626 144.376Q418.269 142.375 416.863 140.407Q415.458 138.439 414.005 136.505Q412.552 134.572 411.052 132.675Q409.552 130.778 408.007 128.918Q406.461 127.058 404.871 125.236Q403.281 123.414 401.647 121.631Q400.012 119.848 398.335 118.106Q396.658 116.363 394.939 114.662Q393.22 112.961 391.46 111.303Q389.7 109.644 387.9 108.029Q386.1 106.413 384.262 104.842Q382.423 103.272 380.547 101.746Q378.67 100.22 376.757 98.7404Q374.844 97.2608 372.896 95.8283Q370.947 94.3957 368.965 93.011Q366.982 91.6263 364.966 90.2903Q362.95 88.9543 360.902 87.6678Q358.854 86.3812 356.776 85.145Q354.697 83.9087 352.589 82.7234Q350.481 81.5381 348.345 80.4045Q346.209 79.271 344.045 78.1897Q341.882 77.1085 339.693 76.0803Q337.504 75.052 335.291 74.0774Q333.078 73.1028 330.841 72.1823Q328.605 71.2619 326.347 70.3962Q324.089 69.5305 321.81 68.72Q319.532 67.9096 317.234 67.1549Q314.936 66.4001 312.621 65.7016C293.164 59.8512 271.855 56.6052 251.515 57.2783ZM95.0782 180.044L95.0734 312.039C113.753 311.707 132.479 311.953 151.164 311.953C163.902 311.953 176.785 311.519 189.503 312.014C189.042 304.69 189.349 297.188 189.35 289.841L189.356 250.335L189.351 204.759C189.352 196.545 189.058 188.226 189.452 180.031L127.333 180.072C116.616 180.073 105.785 180.404 95.0782 180.044ZM321.809 180.058C322.26 208.716 321.882 237.432 321.88 266.096L321.898 296.591C321.904 301.658 322.238 306.981 321.822 312.024C336.885 311.82 351.966 311.954 367.031 311.955L415.947 311.974C416.343 307.572 416.002 302.885 415.988 298.459L415.972 273.506C415.97 242.374 415.509 211.169 416.022 180.045L353.137 180.07C342.723 180.071 332.213 180.368 321.809 180.058ZM208.559 180.08L208.621 266.836L208.622 296.756C208.624 301.778 208.935 307.033 208.546 312.025C239.959 311.568 271.428 311.965 302.847 311.965C302.023 306.999 302.586 300.434 302.587 295.299L302.599 260.882L302.6 207.421C302.599 198.622 302.07 188.725 302.735 180.08C271.357 179.634 239.931 180.64 208.559 180.08ZM72.497 180.061C69.316 186.851 67.006 194.399 64.9671 201.607Q64.0376 204.871 63.2215 208.165Q62.4055 211.459 61.7038 214.779Q61.0021 218.099 60.4157 221.442Q59.8292 224.784 59.3587 228.145Q58.8882 231.506 58.5341 234.881Q58.1801 238.256 57.943 241.641Q57.7059 245.026 57.586 248.418Q57.4661 251.809 57.4636 255.203Q57.461 258.596 57.5758 261.988Q57.6906 265.38 57.9226 268.765Q58.1546 272.151 58.5036 275.526Q58.8525 278.902 59.318 282.264Q59.7834 285.625 60.3648 288.968Q60.9462 292.312 61.6429 295.633Q62.3396 298.954 63.1507 302.25Q63.9618 305.545 64.8864 308.81L65.6441 312.044Q70.9721 311.892 76.3012 312.001C76.0497 306.397 76.1915 300.751 76.1911 295.14L76.194 266.486L76.1921 180.038L72.497 180.061ZM435.101 180.083C434.927 192.599 435.075 205.138 435.078 217.657L435.07 312.039C438.542 311.974 441.996 311.947 445.468 312.057Q446.366 308.658 447.324 305.275C458.091 261.529 455.197 221.874 438.799 179.972L435.101 180.083Z"/>
	<path fill="#73447B" transform="scale(5.52113 5.52113)" d="M247.298 198.692C256.86 198.644 269.539 196.998 277.307 203.31C281.258 206.521 283.312 211.198 283.76 216.182C284.157 220.604 283.993 225.111 283.996 229.55L283.997 250.428L283.99 266.12C283.991 269.878 284.213 273.912 283.595 277.629C283.081 280.715 281.319 284.239 279.303 286.599C275.421 291.143 270.482 292.737 264.698 293.194C260.948 293.262 257.194 293.249 253.443 293.26C246.711 293.28 239.825 293.584 234.299 289.05C230.444 285.888 227.825 281.045 227.386 276.086C227.015 271.894 227.169 267.62 227.166 263.412L227.16 242.754L227.166 226.352C227.168 222.202 226.946 217.887 227.653 213.786C228.216 210.517 229.441 207.984 231.596 205.452C235.781 200.533 241.105 199.164 247.298 198.692ZM246.289 217.733L246.275 253.644C246.279 260.513 246.453 267.429 246.226 274.292C252.468 274.139 258.713 274.256 264.956 274.255C264.368 264.294 264.826 254.054 264.827 244.065C264.827 235.496 264.321 226.225 264.967 217.744C258.977 217.778 252.218 218.291 246.289 217.733Z"/>
	<path fill="#73447B" transform="scale(5.52113 5.52113)" d="M366.959 198.941C367.759 198.822 368.547 198.77 369.357 198.807C371.832 198.918 374.283 200.002 375.922 201.879C377.013 203.128 377.915 204.803 378.142 206.459C378.614 209.919 378.413 213.581 378.407 217.071L378.396 232.823L378.403 259.165C378.403 264.183 378.559 269.263 378.31 274.273C383.059 274.087 390.32 273.268 394.092 276.66C396.003 278.379 397.237 281.233 397.258 283.794C397.278 286.231 396.2 288.617 394.495 290.338C393.196 291.649 391.604 292.493 389.803 292.872C386.095 293.653 381.879 293.256 378.099 293.25L360.478 293.228C355.19 293.253 347.504 294.478 343.426 290.571Q343.069 290.234 342.748 289.861Q342.427 289.489 342.146 289.086Q341.866 288.683 341.628 288.253Q341.39 287.823 341.197 287.371Q341.005 286.919 340.86 286.449Q340.714 285.98 340.618 285.498Q340.522 285.016 340.476 284.527Q340.43 284.037 340.434 283.546C340.466 281.092 341.469 278.642 343.241 276.933C347.177 273.137 354.442 274.167 359.443 274.25C358.936 267.356 359.269 260.303 359.264 253.382C359.257 244.712 359.006 235.963 359.372 227.302C357.897 227.119 356.443 226.801 355.095 226.159C352.891 225.11 351.226 223.473 350.486 221.113Q350.326 220.602 350.219 220.077Q350.112 219.551 350.06 219.018Q350.008 218.485 350.011 217.949Q350.014 217.413 350.072 216.88Q350.131 216.348 350.244 215.824Q350.357 215.3 350.524 214.791Q350.69 214.281 350.908 213.792Q351.126 213.302 351.394 212.838C353.466 209.182 360.297 202.512 363.79 200.238C364.771 199.599 365.848 199.273 366.959 198.941Z"/>
	<path fill="#73447B" transform="scale(5.52113 5.52113)" d="M125.171 198.698L126.256 198.684L140.937 198.659C149.627 198.655 158.62 197.854 165.294 204.524C171.973 211.199 170.625 221.028 170.656 229.656C170.683 237.275 170.728 244.199 164.951 249.925C159.205 255.621 152.041 255.546 144.475 255.53L132.829 255.452C133.091 261.657 133.017 268.025 132.846 274.236L150.771 274.199C154.706 274.185 159.088 273.809 162.951 274.553C164.483 274.848 165.83 275.296 167.038 276.315Q167.424 276.634 167.775 276.99Q168.126 277.347 168.438 277.738Q168.751 278.129 169.022 278.549Q169.293 278.97 169.519 279.416Q169.745 279.863 169.925 280.33Q170.104 280.797 170.235 281.28Q170.366 281.763 170.446 282.257Q170.527 282.75 170.556 283.25C170.74 285.926 169.929 288.021 168.136 290.008C165.677 292.734 162.799 293.13 159.327 293.234L143.05 293.259C134.661 293.271 126.222 294.172 119.697 287.839C114.818 283.103 113.768 277.473 113.715 270.918C113.638 261.463 111.96 249.303 119.266 241.999C124.973 236.293 132.661 236.451 140.171 236.449L151.661 236.457C151.167 230.658 151.169 223.55 151.634 217.752C146.042 217.93 140.395 217.785 134.796 217.794C130.54 217.801 125.561 218.346 121.414 217.442C119.731 217.075 118.035 216.186 116.754 215.037Q116.422 214.741 116.122 214.413Q115.821 214.086 115.555 213.73Q115.288 213.374 115.058 212.993Q114.828 212.613 114.637 212.212Q114.445 211.81 114.295 211.392Q114.144 210.973 114.036 210.542Q113.928 210.111 113.863 209.671Q113.798 209.231 113.777 208.787Q113.755 208.304 113.781 207.822Q113.808 207.339 113.883 206.862Q113.959 206.385 114.082 205.917Q114.205 205.45 114.375 204.998Q114.545 204.545 114.759 204.112Q114.974 203.68 115.231 203.271Q115.489 202.862 115.786 202.481Q116.084 202.1 116.418 201.751C118.899 199.147 121.785 198.819 125.171 198.698Z"/>
	<path fill="#73447B" transform="scale(5.52113 5.52113)" d="M226.008 387.789C236.729 387.261 247.646 387.695 258.394 387.684C266.612 387.675 276.575 387.157 284.509 387.806C285.928 387.922 287.216 388.25 288.469 388.938Q288.902 389.175 289.309 389.454Q289.716 389.734 290.092 390.054Q290.468 390.374 290.81 390.731Q291.151 391.088 291.454 391.478Q291.757 391.867 292.018 392.286Q292.28 392.705 292.497 393.149Q292.714 393.592 292.885 394.055Q293.056 394.519 293.178 394.997C293.844 397.64 293.26 400.104 291.81 402.37C290.215 404.86 287.966 405.893 285.189 406.511C272.99 406.974 260.612 406.554 248.396 406.523Q242.124 406.482 235.852 406.527C232.87 406.561 229.794 406.773 226.824 406.518C225.194 406.378 223.709 405.964 222.298 405.122Q221.897 404.888 221.522 404.614Q221.147 404.339 220.802 404.028Q220.457 403.717 220.145 403.373Q219.834 403.028 219.559 402.653Q219.285 402.279 219.05 401.878Q218.815 401.477 218.623 401.054Q218.43 400.632 218.282 400.191Q218.134 399.751 218.031 399.298C217.452 396.738 218.027 394.066 219.483 391.898C221.097 389.496 223.242 388.385 226.008 387.789Z"/>
	<path fill="#73447B" transform="scale(5.52113 5.52113)" d="M169.711 350.08C178.671 349.449 188.006 349.961 197.002 349.962L249.188 349.958L312.613 349.969C321.565 349.992 330.721 349.487 339.646 349.953C341.732 350.062 343.857 350.492 345.667 351.574C347.767 352.828 349.164 354.796 349.722 357.169C350.312 359.677 349.936 362.488 348.517 364.673C346.99 367.025 344.369 368.23 341.716 368.749C332.713 369.25 323.418 368.807 314.39 368.807L260.89 368.805L198.129 368.791C189.28 368.77 180.28 369.219 171.456 368.843C169.494 368.759 167.491 368.47 165.782 367.442C163.512 366.076 161.843 363.876 161.328 361.262C160.82 358.688 161.478 356.067 163.011 353.955C164.771 351.53 166.863 350.569 169.711 350.08Z"/>
</svg>
