<svg xmlns="http://www.w3.org/2000/svg" width="36.198" height="44.462" viewBox="0 0 36.198 44.462">
  <g id="pdf-file-svgrepo-com" transform="translate(-44.806)">
    <path id="Path_8823" data-name="Path 8823" d="M120.7,298.591c0-.738-.512-1.179-1.416-1.179a3.136,3.136,0,0,0-.75.071v2.369a2.839,2.839,0,0,0,.608.047C120.1,299.9,120.7,299.412,120.7,298.591Z" transform="translate(-66.928 -269.985)" fill="#734278"/>
    <path id="Path_8824" data-name="Path 8824" d="M194.625,297.681a3.738,3.738,0,0,0-.821.071V303a3.279,3.279,0,0,0,.631.036,2.486,2.486,0,0,0,2.713-2.808A2.3,2.3,0,0,0,194.625,297.681Z" transform="translate(-135.258 -270.23)" fill="#734278"/>
    <path id="Path_8825" data-name="Path 8825" d="M69.765,0H51.907a4.739,4.739,0,0,0-4.732,4.732v17.5h-.462a1.907,1.907,0,0,0-1.907,1.907V35.7a1.906,1.906,0,0,0,1.907,1.907h.462v2.121a4.737,4.737,0,0,0,4.732,4.732H76.273A4.737,4.737,0,0,0,81,39.729V11.2ZM49.809,26.225a14.948,14.948,0,0,1,2.451-.166,3.845,3.845,0,0,1,2.451.642,2.344,2.344,0,0,1,.857,1.856,2.563,2.563,0,0,1-.738,1.9,3.72,3.72,0,0,1-2.606.844,4.7,4.7,0,0,1-.619-.035v2.868h-1.8ZM76.273,41.564H51.907a1.836,1.836,0,0,1-1.833-1.834V37.609H72.789A1.906,1.906,0,0,0,74.7,35.7V24.138a1.907,1.907,0,0,0-1.907-1.907H50.074V4.732A1.835,1.835,0,0,1,51.907,2.9l16.773-.018v6.2a3.283,3.283,0,0,0,3.282,3.282l6.074-.017L78.1,39.729A1.834,1.834,0,0,1,76.273,41.564ZM56.726,34.1V26.225a16.333,16.333,0,0,1,2.451-.166,5.164,5.164,0,0,1,3.285.856,3.549,3.549,0,0,1,1.356,3.023,4.065,4.065,0,0,1-1.333,3.248,5.757,5.757,0,0,1-3.7,1.035A15.7,15.7,0,0,1,56.726,34.1Zm12.987-4.664v1.475h-2.88v3.225h-1.82v-8.02h4.9v1.487H66.833v1.833Z" transform="translate(0)" fill="#734278"/>
  </g>
</svg>
