<svg id="Group_4423" data-name="Group 4423" xmlns="http://www.w3.org/2000/svg" width="53.82" height="45.238" viewBox="0 0 53.82 45.238">
  <path id="Path_8763" data-name="Path 8763" d="M45.445,32.8c.2-.346.377-.707.543-1.053.106-.211.2-.421.3-.632.151-.346.287-.692.408-1.053.091-.241.181-.481.257-.737.106-.316.181-.632.257-.963.075-.3.151-.586.211-.887.045-.256.091-.511.121-.767.06-.361.121-.722.151-1.1v-.241c.045-.511.075-1.023.075-1.534a18.187,18.187,0,0,0-.332-3.414.33.33,0,0,0-.015-.12c-.091-.451-.2-.872-.317-1.308-.045-.15-.075-.316-.121-.466-.106-.346-.226-.677-.347-1.008-.091-.241-.166-.5-.272-.737s-.211-.466-.332-.707c-.151-.316-.3-.647-.468-.963-.076-.135-.166-.271-.241-.406-.226-.391-.453-.782-.709-1.158a.637.637,0,0,1-.076-.105A17.871,17.871,0,0,0,39.7,8.619a.638.638,0,0,0-.106-.075c-.377-.256-.77-.481-1.162-.707-.136-.075-.272-.165-.408-.241-.317-.165-.634-.316-.966-.466-.242-.105-.468-.226-.709-.331s-.483-.18-.74-.271c-.332-.12-.664-.256-1.011-.346-.151-.045-.317-.075-.468-.12q-.656-.18-1.313-.316a.333.333,0,0,1-.121-.015,17.9,17.9,0,0,0-6.852,0,.334.334,0,0,0-.121.015c-.453.09-.875.2-1.313.316-.151.045-.317.075-.468.12-.347.105-.679.226-1.011.346-.241.09-.5.165-.739.271s-.468.211-.709.331c-.317.15-.649.3-.966.466-.136.075-.272.165-.407.241-.392.226-.785.451-1.162.707a.635.635,0,0,1-.106.075,17.871,17.871,0,0,0-4.845,4.828.632.632,0,0,0-.075.105c-.257.376-.483.767-.709,1.158-.076.135-.166.271-.241.406-.166.316-.317.632-.468.963-.106.241-.226.466-.332.707s-.181.481-.272.737c-.121.331-.257.662-.347,1.008-.045.15-.075.316-.121.466q-.181.654-.317,1.308a.33.33,0,0,1-.015.12,17.719,17.719,0,0,0,0,6.828.33.33,0,0,0,.015.12c.091.451.2.872.317,1.308.045.15.075.316.121.466.106.346.226.677.347,1.008.091.241.166.5.272.737s.211.466.332.707c.151.316.3.647.468.963.075.135.166.271.241.406.226.391.453.782.709,1.158a.643.643,0,0,1,.075.105,18.047,18.047,0,0,0,2.188,2.647c.136.135.3.256.438.391.347.316.694.632,1.056.932.226.18.468.361.709.526.332.241.664.466,1.011.692.241.15.483.3.74.451.392.226.815.436,1.223.632.211.105.408.211.619.3a16.879,16.879,0,0,0,1.9.692c.045,0,.075.03.121.045h.076a18.047,18.047,0,0,0,4.06.692c.045,0,.075.03.121.03h.5c.181,0,.347.03.528.03a3.45,3.45,0,0,0,.392-.03c.453,0,.906-.045,1.358-.09.272-.03.543-.045.8-.09.468-.06.936-.165,1.4-.256.241-.045.483-.09.709-.15a17.223,17.223,0,0,0,1.947-.617c.272-.105.528-.226.785-.346.377-.165.77-.331,1.132-.526.091-.045.181-.075.272-.12a.651.651,0,0,0,.106-.09,17.772,17.772,0,0,0,3.29-2.316.533.533,0,0,0,.121-.075c.136-.12.241-.256.377-.376.121-.12.257-.211.377-.331s.211-.241.332-.361c.211-.211.408-.436.6-.662.241-.271.468-.556.679-.842.151-.211.317-.421.468-.632.226-.316.438-.647.634-.978.121-.2.242-.406.362-.6Zm.589-7.354c-.03.331-.091.677-.151,1.008-.03.226-.06.466-.106.692-.06.271-.136.541-.2.812-.076.286-.151.571-.242.857-.075.226-.151.451-.241.677-.121.316-.226.632-.362.947l-.272.586c-.151.316-.317.647-.483.948-.106.2-.211.376-.332.556-.181.3-.377.587-.574.872-.136.2-.287.391-.423.571-.2.256-.408.511-.619.752-.181.211-.362.406-.543.6a8.2,8.2,0,0,1-.634.617,16.36,16.36,0,0,1-3.8,2.707c-.3.165-.634.3-.951.436-.272.12-.528.256-.8.361a17.9,17.9,0,0,1-1.736.557c-.226.06-.468.09-.694.15q-.611.135-1.223.226c-.257.03-.5.06-.755.075-.407.045-.8.06-1.207.075h-.86a17.2,17.2,0,0,1-4.422-.707c-.574-.18-1.147-.391-1.705-.617-.211-.09-.408-.2-.619-.3-.362-.165-.709-.346-1.056-.541-.241-.135-.468-.271-.694-.421-.3-.2-.589-.391-.875-.6l-.679-.5c-.317-.256-.6-.526-.906-.8a17.083,17.083,0,0,1-3.184-4c-.06-.105-.121-.2-.181-.3-.166-.3-.3-.617-.453-.932-.091-.2-.181-.376-.272-.572-.106-.241-.181-.481-.272-.722-.106-.286-.211-.556-.3-.857l-.136-.5c-.106-.376-.2-.737-.272-1.113a.884.884,0,0,0-.03-.211,16.871,16.871,0,0,1,0-6.031.877.877,0,0,1,.03-.2c.075-.391.181-.767.272-1.143.045-.15.075-.316.121-.481.091-.3.2-.586.3-.872.091-.241.166-.466.257-.707.091-.211.2-.406.287-.617a9.947,9.947,0,0,1,.438-.9,2.641,2.641,0,0,1,.211-.346c.211-.361.423-.722.649-1.068.015-.03.03-.045.045-.075a16.792,16.792,0,0,1,4.377-4.376l.136-.09c.332-.226.664-.421,1.011-.617.136-.075.272-.165.423-.256a8.347,8.347,0,0,1,.83-.391c.226-.105.468-.226.694-.316.2-.075.407-.15.6-.226.332-.12.649-.241.981-.346.121-.03.241-.06.347-.09q.634-.18,1.268-.316a16.723,16.723,0,0,1,6.354,0h.06a12.066,12.066,0,0,1,1.223.3,2.987,2.987,0,0,1,.392.105c.317.09.619.211.936.331.211.075.438.15.649.241.226.09.438.2.649.3.287.135.589.271.875.421.121.075.257.15.377.226.362.211.709.406,1.056.647.03.015.06.045.091.06a17.079,17.079,0,0,1,4.422,4.406c.015.03.045.045.06.075.226.346.438.692.649,1.053.076.12.151.241.226.376.151.286.287.586.423.872.106.211.211.421.3.647.091.211.166.436.242.662.106.3.226.6.317.917a4.293,4.293,0,0,1,.106.421c.106.391.211.8.287,1.2a.255.255,0,0,0,.015.105,16.839,16.839,0,0,1,.226,4.527v.2Z" transform="translate(-2.412 -1.221)" fill="#72437b"/>
  <path id="Path_8764" data-name="Path 8764" d="M53.714,11.279H47.043a22.7,22.7,0,0,0-38.773,0H1.6a.842.842,0,0,0-.845.842V33.9a.842.842,0,0,0,.845.842H8.27a22.716,22.716,0,0,0,38.788,0h6.671a.842.842,0,0,0,.845-.842V12.121a.842.842,0,0,0-.845-.842ZM2.429,33.056V12.948h4.89a22.481,22.481,0,0,0,0,20.092H2.429Zm43.406.421a21.046,21.046,0,0,1-36.388,0,20.821,20.821,0,0,1,0-20.935,21.038,21.038,0,0,1,36.388-.015,20.822,20.822,0,0,1,0,20.935Zm7.018-.421h-4.89a22.481,22.481,0,0,0,0-20.092h4.89V33.056Z" transform="translate(-0.754 -0.391)" fill="#72437b"/>
  <path id="Path_8765" data-name="Path 8765" d="M42.262,16.45H18.733a.842.842,0,0,0-.845.842v5.023a.842.842,0,0,0,.845.842H42.277a.842.842,0,0,0,.845-.842V17.293a.842.842,0,0,0-.845-.842ZM23.774,21.473h-4.2V18.12h4.2Zm5.886,0h-4.2V18.12h4.2Zm5.886,0h-4.2V18.12h4.2Zm5.886,0h-4.2V18.12h4.2Z" transform="translate(-3.592 -3.051)" fill="#72437b"/>
  <path id="Path_8766" data-name="Path 8766" d="M32.6,27.85a.869.869,0,0,0-1.358,0l-3.879,5.369a4.706,4.706,0,0,0-.906,2.767,4.659,4.659,0,0,0,1.69,3.519,5.764,5.764,0,0,0,3.773,1.4c2.958,0,5.464-2.256,5.464-4.918a4.661,4.661,0,0,0-.906-2.752L32.6,27.865Zm-.679,11.385a4.1,4.1,0,0,1-2.671-.993,3.054,3.054,0,0,1-1.117-2.256,2.948,2.948,0,0,1,.589-1.775l3.2-4.422,3.2,4.422a2.949,2.949,0,0,1,.589,1.775C35.709,37.715,33.943,39.235,31.921,39.235Z" transform="translate(-5.011 -4.885)" fill="#72437b"/>
  <path id="Path_8767" data-name="Path 8767" d="M43.993,27.5a2.933,2.933,0,1,0,2.943,2.933A2.941,2.941,0,0,0,43.993,27.5Zm0,4.181a1.263,1.263,0,1,1,1.268-1.263A1.263,1.263,0,0,1,43.993,31.681Z" transform="translate(-7.429 -4.881)" fill="#72437b"/>
  <path id="Path_8768" data-name="Path 8768" d="M20.83,27.5a2.933,2.933,0,1,0,2.943,2.933A2.941,2.941,0,0,0,20.83,27.5Zm0,4.181A1.263,1.263,0,1,1,22.1,30.418,1.263,1.263,0,0,1,20.83,31.681Z" transform="translate(-3.592 -4.881)" fill="#72437b"/>
  <path id="Path_8769" data-name="Path 8769" d="M29.8,13.106h5.04a.842.842,0,1,0,0-1.684H29.8a.842.842,0,1,0,0,1.684Z" transform="translate(-5.425 -2.218)" fill="#72437b"/>
  <path id="Path_8770" data-name="Path 8770" d="M32.738,39.057a1.263,1.263,0,1,0-1.268-1.263A1.265,1.265,0,0,0,32.738,39.057Z" transform="translate(-5.842 -6.377)" fill="#72437b"/>
</svg>
