<svg xmlns="http://www.w3.org/2000/svg" width="63.737" height="32.884" viewBox="0 0 63.737 32.884">
  <g id="Group_4457" data-name="Group 4457" transform="translate(-0.923)">
    <path id="Path_8788" data-name="Path 8788" d="M50.983,15.911l1.433-1.444-.843-.836L50.14,15.075,34.836,30.5l.843.836,1.445-1.457Z" transform="translate(-4.566 -1.835)" fill="#72437b"/>
    <path id="Path_8789" data-name="Path 8789" d="M48.541,22.126c-.341-.734-.642-1.376-.9-1.979-1.153-2.621-1.717-3.775-2.831-3.775-1.153-.039-1.678,1.075-3,3.644-.21.472-.511,1.035-.813,1.586a4.3,4.3,0,0,0-.6,2.228v.039a4.3,4.3,0,0,0,4.246,3.775,4.227,4.227,0,0,0,4.207-3.683,2.5,2.5,0,0,0-.3-1.8Zm-1.717,1.415v.039a2.229,2.229,0,0,1-4.417.092,2.262,2.262,0,0,1,.38-1.075c.3-.6.564-1.206.813-1.678.433-.852.773-1.625,1.075-2.1a20.906,20.906,0,0,1,1.035,2.1c.3.6.6,1.245.944,2.018C46.863,23.371,46.824,23.371,46.824,23.542Z" transform="translate(-5.313 -2.204)" fill="#72437b"/>
    <path id="Path_8790" data-name="Path 8790" d="M64.463,10.052a2.216,2.216,0,0,0-2.1,1.481H50.794a12.728,12.728,0,0,0-7.208-3.971V4.456h8.322a2.228,2.228,0,1,0,0-4.456h-21.1a2.228,2.228,0,0,0,0,4.456h8.322V7.549a12.8,12.8,0,0,0-7.208,3.971H20.335a2.227,2.227,0,0,0-4.325.747V28.074a2.227,2.227,0,0,0,4.325.747H32a12.78,12.78,0,0,0,8.611,4.063h1.481A12.723,12.723,0,0,0,50.7,28.821H62.366a2.227,2.227,0,0,0,4.325-.747V12.281A2.226,2.226,0,0,0,64.463,10.052ZM19,28.087a.734.734,0,0,1-1.468,0V12.281a.734.734,0,0,1,1.468,0ZM32.746,1.494H51.908a.734.734,0,1,1,0,1.468h-21.1a.734.734,0,0,1,0-1.468M42.091,4.456V7.379c-.249-.013-.5-.026-.734-.026a6.868,6.868,0,0,0-.734.026V4.456h1.468ZM26.678,27.34H20.466V13.015H30.754a12.646,12.646,0,0,0-2.176,7.117,12.846,12.846,0,0,0,2.228,7.208H26.678Zm14.679,4.076A11.284,11.284,0,1,1,52.642,20.131,11.293,11.293,0,0,1,41.357,31.416ZM54.123,20.131a12.647,12.647,0,0,0-2.176-7.117H62.222V27.34H51.881a12.751,12.751,0,0,0,2.228-7.208ZM65.2,28.087a.734.734,0,0,1-1.468,0V12.281a.734.734,0,0,1,1.468,0Z" transform="translate(-2.031)" fill="#72437b"/>
    <path id="Path_8791" data-name="Path 8791" d="M9.649,11.616a2.216,2.216,0,0,0-2.1,1.481H3.03v1.481H7.421V28.9H3.03v1.481H7.539a2.227,2.227,0,0,0,4.325-.747V13.844a2.226,2.226,0,0,0-2.228-2.228Zm.734,18.034a.734.734,0,0,1-1.468,0V13.844a.734.734,0,0,1,1.468,0Z" transform="translate(-0.284 -1.564)" fill="#72437b"/>
    <path id="Path_8792" data-name="Path 8792" d="M2.745,14.809V13.328H.923v17.3H2.745V14.809Z" transform="translate(0 -1.794)" fill="#72437b"/>
  </g>
</svg>
