<svg id="Group_4456" data-name="Group 4456" xmlns="http://www.w3.org/2000/svg" width="51.733" height="47.78" viewBox="0 0 51.733 47.78">
  <path id="Path_8774" data-name="Path 8774" d="M24.139,35.956V16.976a2.533,2.533,0,0,0-2.585-2.585H2.585A2.533,2.533,0,0,0,0,16.976V35.944a2.533,2.533,0,0,0,2.585,2.585H21.554a2.533,2.533,0,0,0,2.585-2.585Zm-22.423,0V16.976a.81.81,0,0,1,.858-.858H21.541a.81.81,0,0,1,.858.858V35.944a.81.81,0,0,1-.858.858H2.585a.81.81,0,0,1-.858-.858Z" transform="translate(0 -2.574)" fill="#72437b"/>
  <path id="Path_8775" data-name="Path 8775" d="M5.066,21.374h8.626a.858.858,0,1,0,0-1.715H5.066a.858.858,0,0,0,0,1.715Z" transform="translate(-0.753 -3.516)" fill="#72437b"/>
  <path id="Path_8776" data-name="Path 8776" d="M17.7,23.851H8.212a.858.858,0,0,0,0,1.715H17.7a.858.858,0,0,0,0-1.715Z" transform="translate(-1.315 -4.266)" fill="#72437b"/>
  <path id="Path_8777" data-name="Path 8777" d="M13.68,28.043H5.066a.858.858,0,0,0,0,1.715h8.626a.858.858,0,1,0,0-1.715Z" transform="translate(-0.753 -5.015)" fill="#72437b"/>
  <path id="Path_8778" data-name="Path 8778" d="M9.379,33.109a.81.81,0,0,0-.858-.858H5.066a.858.858,0,0,0,0,1.715H8.509a.81.81,0,0,0,.858-.858Z" transform="translate(-0.753 -5.768)" fill="#72437b"/>
  <path id="Path_8779" data-name="Path 8779" d="M14.057,36.446H7.17a.858.858,0,1,0,0,1.715h6.9a.858.858,0,1,0,0-1.715Z" transform="translate(-1.129 -6.518)" fill="#72437b"/>
  <path id="Path_8780" data-name="Path 8780" d="M55.158,14.39H36.19A2.533,2.533,0,0,0,33.6,16.976V35.944a2.533,2.533,0,0,0,2.585,2.585H55.158a2.533,2.533,0,0,0,2.585-2.585V16.976A2.533,2.533,0,0,0,55.158,14.39Zm.858,21.554a.81.81,0,0,1-.858.858H36.19a.81.81,0,0,1-.858-.858V16.976a.81.81,0,0,1,.858-.858H55.158a.81.81,0,0,1,.858.858Z" transform="translate(-6.01 -2.574)" fill="#72437b"/>
  <path id="Path_8781" data-name="Path 8781" d="M38.67,21.374H47.3a.858.858,0,1,0,0-1.715H38.67a.858.858,0,0,0,0,1.715Z" transform="translate(-6.763 -3.516)" fill="#72437b"/>
  <path id="Path_8782" data-name="Path 8782" d="M51.3,23.851H41.816a.858.858,0,0,0,0,1.715H51.3a.858.858,0,0,0,0-1.715Z" transform="translate(-7.325 -4.266)" fill="#72437b"/>
  <path id="Path_8783" data-name="Path 8783" d="M47.28,28.043H38.654a.858.858,0,0,0,0,1.715H47.28a.858.858,0,1,0,0-1.715Z" transform="translate(-6.76 -5.015)" fill="#72437b"/>
  <path id="Path_8784" data-name="Path 8784" d="M42.971,33.109a.81.81,0,0,0-.858-.858H38.67a.858.858,0,0,0,0,1.715h3.443A.81.81,0,0,0,42.971,33.109Z" transform="translate(-6.763 -5.768)" fill="#72437b"/>
  <path id="Path_8785" data-name="Path 8785" d="M47.661,36.446h-6.9a.858.858,0,0,0,0,1.715h6.9a.858.858,0,1,0,0-1.715Z" transform="translate(-7.137 -6.518)" fill="#72437b"/>
  <path id="Path_8786" data-name="Path 8786" d="M14.512,7.515a.516.516,0,0,0,.343-.086A28.486,28.486,0,0,1,28.31,4.072,27.219,27.219,0,0,1,39.84,6.547L36.066,7.785a.8.8,0,0,0-.515,1.029.824.824,0,0,0,.772.6.315.315,0,0,0,.257-.086l5.587-1.838A.823.823,0,0,0,42.879,7a.624.624,0,0,0,.061-.306.926.926,0,0,0-.135-.515L40.98.617a.932.932,0,0,0-1.029-.6.892.892,0,0,0-.515,1.115l1.287,3.933A29.1,29.1,0,0,0,28.31,2.332a29.977,29.977,0,0,0-14.14,3.541.851.851,0,0,0-.429,1.115.824.824,0,0,0,.772.515Z" transform="translate(-2.446)" fill="#72437b"/>
  <path id="Path_8787" data-name="Path 8787" d="M41.766,48.7a28.487,28.487,0,0,1-13.454,3.357,27.218,27.218,0,0,1-11.457-2.438l3.872-1.262a.868.868,0,0,0-.6-1.63l-5.771,1.9a1.257,1.257,0,0,0-.257.123.793.793,0,0,0-.355.392.917.917,0,0,0,.073.821l1.826,5.563a.824.824,0,0,0,.772.6h.429a.892.892,0,0,0,.515-1.115L16.1,51.165A28.936,28.936,0,0,0,28.3,53.8a29.977,29.977,0,0,0,14.14-3.541.845.845,0,0,0-.686-1.544Z" transform="translate(-2.446 -8.348)" fill="#72437b"/>
</svg>
