<svg xmlns="http://www.w3.org/2000/svg" width="52.413" height="39.711" viewBox="0 0 52.413 39.711">
  <g id="Group_4455" data-name="Group 4455" transform="translate(-0.908 -0.8)">
    <path id="Path_8772" data-name="Path 8772" d="M52.9,17.394l-.653-.657-.651.66L46.452,22.61V1.9H24.7V6.462H41.926V22.61L36.781,17.4l-.651-.66-.654.657-1.911,1.922-.642.645.64.647,9.979,10.1.653.661.653-.662,9.964-10.1.639-.647-.641-.645Z" transform="translate(-3.68)" fill="none" stroke="#734278" stroke-width="2.2"/>
    <path id="Path_8773" data-name="Path 8773" d="M15.979,20.422l5.146,5.2.654.662.653-.663,1.9-1.927.636-.646-.638-.644L14.36,12.354l-.652-.658-.652.658L3.092,22.4l-.638.644.636.646,1.9,1.927.651.662.654-.659,5.162-5.2v20.6H33.2V36.483H15.979Z" transform="translate(0 -1.62)" fill="none" stroke="#734278" stroke-width="2.2"/>
  </g>
</svg>
