<svg xmlns="http://www.w3.org/2000/svg" width="38.224" height="47.686" viewBox="0 0 38.224 47.686">
  <g id="Group_4458" data-name="Group 4458" transform="translate(0.25 0.25)">
    <path id="Path_8793" data-name="Path 8793" d="M37.724,7.536A3.735,3.735,0,0,0,34,3.808H13.66a7.266,7.266,0,1,0-10.7,9.3V43.458a3.735,3.735,0,0,0,3.728,3.728H27.63a.756.756,0,0,0,.528-.218l9.256-9.313.1-.1s.057-.069.08-.1a.036.036,0,0,1,.011-.023.342.342,0,0,0,.046-.092.057.057,0,0,1,.011-.034.654.654,0,0,0,.046-.252V7.536ZM1.468,7.26a5.786,5.786,0,1,1,5.781,5.8,5.684,5.684,0,0,1-3.154-.941A5.768,5.768,0,0,1,1.468,7.272ZM4.427,43.47V13.947a7.172,7.172,0,0,0,2.822.574,7.269,7.269,0,0,0,7.26-7.26,7.125,7.125,0,0,0-.275-1.973H34.007a2.252,2.252,0,0,1,2.248,2.248V36.3H30.612a3.735,3.735,0,0,0-3.728,3.728v5.689H6.687A2.252,2.252,0,0,1,4.439,43.47Zm23.926,1.158v-4.6A2.252,2.252,0,0,1,30.6,37.781h4.6Z" fill="#72437b" stroke="#72437b" stroke-width="0.5"/>
    <path id="Path_8794" data-name="Path 8794" d="M20.877,35.9H12.7a.732.732,0,0,0-.734.734.739.739,0,0,0,.734.734h8.178a.732.732,0,0,0,.734-.734A.739.739,0,0,0,20.877,35.9Z" transform="translate(-2.753 -8.263)" fill="#72437b" stroke="#72437b" stroke-width="0.5"/>
    <path id="Path_8795" data-name="Path 8795" d="M20.877,42.087H12.7a.732.732,0,0,0-.734.734.739.739,0,0,0,.734.734h8.178a.732.732,0,0,0,.734-.734A.739.739,0,0,0,20.877,42.087Z" transform="translate(-2.753 -9.686)" fill="#72437b" stroke="#72437b" stroke-width="0.5"/>
    <path id="Path_8796" data-name="Path 8796" d="M29.088,35.9a.732.732,0,0,0-.734.734.739.739,0,0,0,.734.734h8.178A.732.732,0,0,0,38,36.639a.739.739,0,0,0-.734-.734Z" transform="translate(-6.525 -8.263)" fill="#72437b" stroke="#72437b" stroke-width="0.5"/>
    <path id="Path_8797" data-name="Path 8797" d="M37.265,43.57A.732.732,0,0,0,38,42.835a.739.739,0,0,0-.734-.734H29.088a.732.732,0,0,0-.734.734.739.739,0,0,0,.734.734Z" transform="translate(-6.525 -9.689)" fill="#72437b" stroke="#72437b" stroke-width="0.5"/>
    <path id="Path_8798" data-name="Path 8798" d="M20.877,48.27H12.7a.732.732,0,0,0-.734.734.739.739,0,0,0,.734.734h8.178A.732.732,0,0,0,21.611,49,.739.739,0,0,0,20.877,48.27Z" transform="translate(-2.753 -11.108)" fill="#72437b" stroke="#72437b" stroke-width="0.5"/>
    <path id="Path_8799" data-name="Path 8799" d="M17.557,27.724H34.291a.732.732,0,0,0,.734-.734.739.739,0,0,0-.734-.734H32.858V16.094a.732.732,0,0,0-.734-.734H28.075a.732.732,0,0,0-.734.734V26.245H25.586V18.652a.732.732,0,0,0-.734-.734H20.8a.732.732,0,0,0-.734.734v7.593H18.314V20.969a.732.732,0,0,0-.734-.734H13.531a.732.732,0,0,0-.734.734v5.276H11.478a.732.732,0,0,0-.734.734.739.739,0,0,0,.734.734h6.1Zm11.252-10.9h2.569v9.417H28.809V16.828Zm-7.283,2.558h2.569v6.859H21.526Zm-7.283,2.328h2.569v4.531H14.242Z" transform="translate(-2.473 -3.535)" fill="#72437b" stroke="#72437b" stroke-width="0.5"/>
    <path id="Path_8800" data-name="Path 8800" d="M7.4,10.865a.72.72,0,0,0,1.032,0l3.211-3.211A.738.738,0,0,0,10.6,6.61l-2.7,2.7L6.116,7.516A.738.738,0,0,0,5.072,8.56l2.317,2.317Z" transform="translate(-1.118 -1.472)" fill="#72437b" stroke="#72437b" stroke-width="0.5"/>
  </g>
</svg>
