<svg id="Group_4459" data-name="Group 4459" xmlns="http://www.w3.org/2000/svg" width="48.513" height="48.502" viewBox="0 0 48.513 48.502">
  <path id="Path_8801" data-name="Path 8801" d="M22.406,3.853A18.539,18.539,0,1,0,40.945,22.392,18.54,18.54,0,0,0,22.406,3.853ZM38.631,27.215a.737.737,0,0,1-.091.013h-.806V15.944h.325A16.8,16.8,0,0,1,38.631,27.215ZM16.764,15.944V27.228H8.69V15.944h8.073Zm1.612,0h8.06V27.228h-8.06Zm9.672,0h8.06V27.228h-8.06ZM22.406,5.465a16.939,16.939,0,0,1,14.886,8.866H7.52A16.939,16.939,0,0,1,22.406,5.465ZM6.753,15.944h.325V27.228H6.272a.294.294,0,0,1-.091-.013A16.8,16.8,0,0,1,6.753,15.944ZM22.406,39.319A16.965,16.965,0,0,1,6.753,28.84H38.046A16.938,16.938,0,0,1,22.393,39.319Z" transform="translate(-0.576 -0.574)" fill="#72437b"/>
  <path id="Path_8802" data-name="Path 8802" d="M39.315,34.754a21.757,21.757,0,1,0-4.55,4.563l8.164,8.164a3.229,3.229,0,0,0,4.719-4.407,1.48,1.48,0,0,0-.143-.143l-8.164-8.164ZM1.665,21.819a20.157,20.157,0,1,0,.013,0Zm44.67,24.519a1.641,1.641,0,0,1-2.275,0L36.012,38.29a22.117,22.117,0,0,0,2.275-2.275l8.047,8.047A1.616,1.616,0,0,1,46.335,46.338Z" transform="translate(0 0)" fill="#72437b"/>
  <path id="Path_8803" data-name="Path 8803" d="M13.042,23.177A1.62,1.62,0,0,0,11.43,24.79V26.4a1.62,1.62,0,0,0,1.612,1.612H15.46a.806.806,0,0,0,0-1.612H13.042V24.79h1.612a1.62,1.62,0,0,0,1.612-1.612V21.565a1.62,1.62,0,0,0-1.612-1.612H12.236a.806.806,0,0,0,0,1.612h2.418v1.612Z" transform="translate(-1.702 -2.971)" fill="#72437b"/>
  <path id="Path_8804" data-name="Path 8804" d="M38.2,26.4H37.4V20.759a.81.81,0,0,0-.806-.806.866.866,0,0,0-.572.234l-.806.806a.816.816,0,0,0,0,1.144.785.785,0,0,0,.572.234V26.4H34.98a.806.806,0,1,0,0,1.612H38.2a.806.806,0,1,0,0-1.612Z" transform="translate(-5.088 -2.971)" fill="#72437b"/>
  <path id="Path_8805" data-name="Path 8805" d="M26.028,19.953H24.416A1.62,1.62,0,0,0,22.8,21.565V26.4a1.62,1.62,0,0,0,1.612,1.612h1.612A1.62,1.62,0,0,0,27.64,26.4V21.565A1.62,1.62,0,0,0,26.028,19.953ZM24.416,26.4V21.565h1.612V26.4Z" transform="translate(-3.395 -2.971)" fill="#72437b"/>
  <path id="Path_8806" data-name="Path 8806" d="M31.494,35.122H16.986a.806.806,0,0,0,0,1.612H31.494a.806.806,0,1,0,0-1.612Z" transform="translate(-2.409 -5.229)" fill="#72437b"/>
  <path id="Path_8807" data-name="Path 8807" d="M27.5,38.909H22.667a.806.806,0,1,0,0,1.612H27.5a.806.806,0,1,0,0-1.612Z" transform="translate(-3.255 -5.793)" fill="#72437b"/>
</svg>
