<svg xmlns="http://www.w3.org/2000/svg" width="72.127" height="79.271" viewBox="0 0 72.127 79.271">
  <g id="warning-2-svgrepo-com" transform="translate(-0.91 0.141)">
    <path id="Path_8572" data-name="Path 8572" d="M71.037,26.671V52.317a11.9,11.9,0,0,1-5.887,10.236L42.879,75.414a11.86,11.86,0,0,1-11.811,0L8.8,62.553A11.809,11.809,0,0,1,2.91,52.317V26.671A11.9,11.9,0,0,1,8.8,16.435L31.068,3.575a11.86,11.86,0,0,1,11.811,0l22.272,12.86A11.854,11.854,0,0,1,71.037,26.671Z" transform="translate(0 0)" fill="#734278" stroke="#fff" stroke-linecap="round" stroke-linejoin="round" stroke-width="4"/>
    <path id="heart-svgrepo-com" d="M19.092,7.552C15.875,3.8,10.5,2.643,6.467,6.077A9.532,9.532,0,0,0,5.034,19.312c2.632,3.376,10.6,10.5,13.209,12.8a1.851,1.851,0,0,0,.608.437.815.815,0,0,0,.46,0,1.852,1.852,0,0,0,.608-.437c2.611-2.3,10.576-9.426,13.208-12.8A9.465,9.465,0,0,0,31.7,6.077C27.595,2.679,22.31,3.8,19.092,7.552Z" transform="translate(17.881 21.187)" fill="none" stroke="#fff" stroke-linecap="round" stroke-linejoin="round" stroke-width="3.5" fill-rule="evenodd"/>
  </g>
</svg>
