<svg xmlns="http://www.w3.org/2000/svg" width="72.127" height="79.271" viewBox="0 0 72.127 79.271">
  <g id="warning-2-svgrepo-com" transform="translate(-0.91 0.141)">
    <path id="Path_8572" data-name="Path 8572" d="M71.037,26.671V52.317a11.9,11.9,0,0,1-5.887,10.236L42.879,75.414a11.86,11.86,0,0,1-11.811,0L8.8,62.553A11.809,11.809,0,0,1,2.91,52.317V26.671A11.9,11.9,0,0,1,8.8,16.435L31.068,3.575a11.86,11.86,0,0,1,11.811,0l22.272,12.86A11.854,11.854,0,0,1,71.037,26.671Z" transform="translate(0 0)" fill="#734278" stroke="#fff" stroke-linecap="round" stroke-linejoin="round" stroke-width="4"/>
    <g id="update-svgrepo-com" transform="translate(20.269 22.202)">
      <path id="primary" d="M4,16.707a12.7,12.7,0,0,1,23.71-6.352" transform="translate(0 0.586)" fill="none" stroke="#fff" stroke-linecap="round" stroke-linejoin="round" stroke-width="3.5"/>
      <path id="primary-2" data-name="primary" d="M28.78,12A12.7,12.7,0,0,1,5.07,18.352" transform="translate(0.629 5.293)" fill="none" stroke="#fff" stroke-linecap="round" stroke-linejoin="round" stroke-width="3.5"/>
      <path id="primary-3" data-name="primary" d="M14,10.94h7.94V3" transform="translate(5.881)" fill="none" stroke="#fff" stroke-linecap="round" stroke-linejoin="round" stroke-width="3.5"/>
      <path id="primary-4" data-name="primary" d="M12.94,16H5v7.94" transform="translate(0.588 7.645)" fill="none" stroke="#fff" stroke-linecap="round" stroke-linejoin="round" stroke-width="3.5"/>
    </g>
  </g>
</svg>
