<svg xmlns="http://www.w3.org/2000/svg" width="72.127" height="79.271" viewBox="0 0 72.127 79.271">
  <g id="Group_4471" data-name="Group 4471" transform="translate(-662.766 -469.054)">
    <g id="warning-2-svgrepo-com" transform="translate(661.855 469.195)">
      <path id="Path_8572" data-name="Path 8572" d="M71.037,26.671V52.317a11.9,11.9,0,0,1-5.887,10.236L42.879,75.414a11.86,11.86,0,0,1-11.811,0L8.8,62.553A11.809,11.809,0,0,1,2.91,52.317V26.671A11.9,11.9,0,0,1,8.8,16.435L31.068,3.575a11.86,11.86,0,0,1,11.811,0l22.272,12.86A11.854,11.854,0,0,1,71.037,26.671Z" transform="translate(0 0)" fill="#734278" stroke="#fff" stroke-linecap="round" stroke-linejoin="round" stroke-width="4"/>
    </g>
    <text id="E" transform="translate(688 523)" fill="#fff" font-size="40" font-family="Poppins-Medium, Poppins" font-weight="500"><tspan x="0" y="0">E</tspan></text>
  </g>
</svg>
