<svg id="_7935ec95c421cee6d86eb22ecd1368a9" data-name="7935ec95c421cee6d86eb22ecd1368a9" xmlns="http://www.w3.org/2000/svg" width="21.836" height="23.476" viewBox="0 0 21.836 23.476">
  <path id="Path_1741" data-name="Path 1741" d="M19.079.5h2.111l1.36,4.185h.132L23.979.5h2.129l-2.44,6.126v4.346h-2.1V6.821ZM26.33,5.009a1.719,1.719,0,0,1,.758-1.467A3.407,3.407,0,0,1,29.123,3a3.021,3.021,0,0,1,1.907.577,1.792,1.792,0,0,1,.744,1.483v4.1a1.931,1.931,0,0,1-.729,1.6,3.145,3.145,0,0,1-2.007.58,3.036,3.036,0,0,1-1.969-.6,1.966,1.966,0,0,1-.738-1.611Zm1.93,4.262a.644.644,0,0,0,.2.507.831.831,0,0,0,.572.178.931.931,0,0,0,.605-.181.616.616,0,0,0,.225-.5V4.95a.491.491,0,0,0-.229-.42,1.028,1.028,0,0,0-.6-.161.909.909,0,0,0-.557.161.5.5,0,0,0-.215.42ZM38.633,3.123v7.934H36.755v-.876a4.026,4.026,0,0,1-1.081.738,2.666,2.666,0,0,1-1.09.252,1.28,1.28,0,0,1-.982-.354,1.509,1.509,0,0,1-.33-1.063V3.123H35.15V9.2a.589.589,0,0,0,.118.409.506.506,0,0,0,.382.126,1.191,1.191,0,0,0,.524-.167,2.454,2.454,0,0,0,.581-.426V3.123Zm-1.76,14.043a.567.567,0,0,0-.441-.155.585.585,0,0,0-.454.155.766.766,0,0,0-.138.512v.494h1.17v-.494A.762.762,0,0,0,36.873,17.166Zm-5.551,3.72a.836.836,0,0,0,.32.061A.473.473,0,0,0,32,20.827a.553.553,0,0,0,.115-.392V17.578a.615.615,0,0,0-.141-.438.541.541,0,0,0-.411-.149.753.753,0,0,0-.28.055,1,1,0,0,0-.273.174v3.464A1.106,1.106,0,0,0,31.322,20.885Zm8.712-6.048c0-1.376-1.413-2.491-3.154-2.491q-3.726-.126-7.619-.116-3.888-.007-7.619.116c-1.74,0-3.153,1.115-3.153,2.491-.1,1.088-.15,2.177-.146,3.266s.041,2.178.146,3.267c0,1.374,1.413,2.49,3.153,2.49q3.727.124,7.619.116t7.619-.116c1.741,0,3.154-1.115,3.154-2.49.1-1.089.149-2.178.145-3.267S40.139,15.925,40.035,14.838ZM23.071,21.769v.083H21.579v-6.6H20.036v-1.2h4.579v1.2H23.071Zm5.307-5.611v5.694H27.054v-.629a2.825,2.825,0,0,1-.762.53,1.853,1.853,0,0,1-.769.181.9.9,0,0,1-.692-.253,1.1,1.1,0,0,1-.233-.763v-4.84h1.325V20.44a.425.425,0,0,0,.083.292.351.351,0,0,0,.27.091.839.839,0,0,0,.37-.119,1.783,1.783,0,0,0,.41-.306V16.077h1.325Zm5.1,1.356v3.158a1.287,1.287,0,0,1-.311.93,1.2,1.2,0,0,1-.9.321,1.823,1.823,0,0,1-.692-.124,1.745,1.745,0,0,1-.566-.385v.438H29.671v-7.8h1.337v2.484a1.961,1.961,0,0,1,.569-.4,1.475,1.475,0,0,1,.61-.136,1.232,1.232,0,0,1,.96.365,1.53,1.53,0,0,1,.331,1.063Zm4.9.174v1.45H35.841v.991a1.081,1.081,0,0,0,.131.622.527.527,0,0,0,.448.174.6.6,0,0,0,.461-.148,1.066,1.066,0,0,0,.131-.649v-.4h1.364v.51a1.672,1.672,0,0,1-.5,1.318,2.176,2.176,0,0,1-1.487.442,1.993,1.993,0,0,1-1.4-.47,1.668,1.668,0,0,1-.511-1.291V17.607a1.5,1.5,0,0,1,.561-1.208,2.2,2.2,0,0,1,1.451-.467,2.044,2.044,0,0,1,1.4.432,1.575,1.575,0,0,1,.488,1.243v.081Z" transform="translate(-18.344 -0.5)" fill="#fff"/>
</svg>
