<svg id="_7935ec95c421cee6d86eb22ecd125aef" data-name="7935ec95c421cee6d86eb22ecd125aef" xmlns="http://www.w3.org/2000/svg" width="21.186" height="20.251" viewBox="0 0 21.186 20.251">
  <path id="Path_1742" data-name="Path 1742" d="M5.31,32.031V18.367H.768V32.031H5.31ZM3.039,16.5a2.368,2.368,0,1,0,.03-4.722A2.368,2.368,0,1,0,3.01,16.5h.03ZM7.823,32.031s.06-12.382,0-13.664h4.542v1.982h-.03a4.524,4.524,0,0,1,4.123-2.3c2.989,0,5.229,1.953,5.229,6.15v7.835H17.145v-7.31c0-1.837-.657-3.09-2.3-3.09a2.486,2.486,0,0,0-2.33,1.662,3.1,3.1,0,0,0-.149,1.107v7.631Z" transform="translate(-0.5 -11.78)" fill="#fff" fill-rule="evenodd"/>
</svg>
