<svg xmlns="http://www.w3.org/2000/svg" width="39.631" height="39.631" viewBox="0 0 39.631 39.631">
  <path id="bill-svgrepo-com" d="M22.815,11.807h1.1a3.3,3.3,0,0,1,3.3,3.3,1.1,1.1,0,1,1-2.2,0,1.1,1.1,0,0,0-1.1-1.1H15.109a1.1,1.1,0,0,0-1.1,1.1v2.2a1.1,1.1,0,0,0,1.1,1.1h8.807a3.3,3.3,0,0,1,3.3,3.3v2.2a3.3,3.3,0,0,1-3.3,3.3h-1.1v1.1a1.1,1.1,0,0,1-2.2,0v-1.1h-2.2v1.1a1.1,1.1,0,0,1-2.2,0v-1.1h-1.1a3.3,3.3,0,0,1-3.3-3.3,1.1,1.1,0,1,1,2.2,0,1.1,1.1,0,0,0,1.1,1.1h8.807a1.1,1.1,0,0,0,1.1-1.1v-2.2a1.1,1.1,0,0,0-1.1-1.1H15.109a3.3,3.3,0,0,1-3.3-3.3v-2.2a3.3,3.3,0,0,1,3.3-3.3h1.1v-1.1a1.1,1.1,0,1,1,2.2,0v1.1h2.2v-1.1a1.1,1.1,0,0,1,2.2,0ZM33.824,33.824V8.5a3.3,3.3,0,0,0-3.3-3.3H8.5A3.3,3.3,0,0,0,5.2,8.5V38.227a2.2,2.2,0,1,0,4.4,0v-3.3a1.1,1.1,0,0,1,1.1-1.1Zm2.2,0h5.5a1.1,1.1,0,0,1,1.1,1.1v2.2a5.5,5.5,0,0,1-5.5,5.5H7.4a4.4,4.4,0,0,1-4.4-4.4V8.5A5.5,5.5,0,0,1,8.5,3H30.521a5.5,5.5,0,0,1,5.5,5.5Zm1.1,6.605a3.3,3.3,0,0,0,3.3-3.3v-1.1H11.807v2.2a4.383,4.383,0,0,1-.589,2.2Z" transform="translate(-3 -3)" fill="#fff"/>
</svg>
