<svg xmlns="http://www.w3.org/2000/svg" width="43.789" height="37.734" viewBox="0 0 43.789 37.734">
  <g id="bill-ecommerce-shop-svgrepo-com" transform="translate(-3.4 -7.375)">
    <path id="Path_8624" data-name="Path 8624" d="M45.068,23.209H38.984V9.519A1.521,1.521,0,0,0,36.7,8.2l-6.845,3.978L22.252,8.173a1.521,1.521,0,0,0-1.437,0L13.21,12.326,6.282,8.219A1.521,1.521,0,0,0,4,9.519V39.18A5.324,5.324,0,0,0,9.324,44.5H40.5a1.574,1.574,0,0,0,.266,0h.494a5.324,5.324,0,0,0,5.324-5.324V24.73A1.521,1.521,0,0,0,45.068,23.209ZM9.324,41.461A2.282,2.282,0,0,1,7.042,39.18V12.2l5.324,3.179a1.521,1.521,0,0,0,1.521.038l7.605-4.175,7.643,4.016a1.521,1.521,0,0,0,1.468,0l5.324-3.042V39.18a5.232,5.232,0,0,0,.517,2.282ZM43.547,39.18a2.282,2.282,0,0,1-4.563,0V26.251h4.563Z" fill="#fff" stroke="#813c89" stroke-width="1.2"/>
    <path id="Path_8625" data-name="Path 8625" d="M32.252,28H15.521a1.521,1.521,0,0,0,0,3.042H32.252a1.521,1.521,0,0,0,0-3.042Z" transform="translate(-2.395 -4.791)" fill="#fff" stroke="#813c89" stroke-width="1.2"/>
    <path id="Path_8626" data-name="Path 8626" d="M32.252,40H15.521a1.521,1.521,0,0,0,0,3.042H32.252a1.521,1.521,0,0,0,0-3.042Z" transform="translate(-2.395 -7.665)" fill="#fff" stroke="#813c89" stroke-width="1.2"/>
  </g>
</svg>
