<svg xmlns="http://www.w3.org/2000/svg" width="35.145" height="42.6" viewBox="0 0 35.145 42.6">
  <path id="document-svgrepo-com" d="M14.728,1.546A1.864,1.864,0,0,1,16.045,1H30.954a5.591,5.591,0,0,1,5.591,5.591V36.409A5.591,5.591,0,0,1,30.954,42H8.591A5.591,5.591,0,0,1,3,36.409V14.045a1.864,1.864,0,0,1,.546-1.318ZM30.954,4.727H17.909v9.318a1.864,1.864,0,0,1-1.864,1.864H6.727v20.5a1.864,1.864,0,0,0,1.864,1.864H30.954a1.864,1.864,0,0,0,1.864-1.864V6.591A1.864,1.864,0,0,0,30.954,4.727ZM9.363,12.182h4.819V7.363Zm1.092,11.182A1.864,1.864,0,0,1,12.318,21.5H27.227a1.864,1.864,0,1,1,0,3.727H12.318A1.864,1.864,0,0,1,10.455,23.364Zm0,7.455a1.864,1.864,0,0,1,1.864-1.864H27.227a1.864,1.864,0,1,1,0,3.727H12.318A1.864,1.864,0,0,1,10.455,30.818Z" transform="translate(-2.2 -0.2)" fill="#fff" stroke="#804285" stroke-width="1.6" fill-rule="evenodd"/>
</svg>
