<svg xmlns="http://www.w3.org/2000/svg" width="49.774" height="49.854" viewBox="0 0 49.774 49.854">
  <g id="Group_4043" data-name="Group 4043" transform="translate(-0.75 -0.293)">
    <circle id="Ellipse_156" data-name="Ellipse 156" cx="23.787" cy="23.787" r="23.787" transform="translate(1.85 1.473)" fill="none" stroke="#fff" stroke-width="2.2"/>
    <path id="Path_1389" data-name="Path 1389" d="M36.638,18.454H28.012L35.689,4.306a.323.323,0,0,0,.052-.016.329.329,0,0,0,.181-.181.4.4,0,0,0,0-.3.325.325,0,0,0-.2-.183.32.32,0,0,0-.059-.014,2.471,2.471,0,0,0-.146-.218.781.781,0,0,0-.561-.343L24.41.551,24.378.543h-.034a1.1,1.1,0,0,0-.936.507l-.011.016-.009.018L10.984,26.49A.952.952,0,0,0,11,27.545a1.212,1.212,0,0,0,.417.36,1.12,1.12,0,0,0,.515.141h7.535l-6.8,18.041a1.02,1.02,0,0,0,.389,1.237.591.591,0,0,0,.308.131,1.779,1.779,0,0,0,.255.013h.009c.041,0,.122.007.245.02l.036,0c.107.011.233.024.356.032a3.137,3.137,0,0,0,.408.007,1.036,1.036,0,0,0,.194-.029.482.482,0,0,0,.216-.115l.011-.011.01-.012L37.485,20.2l.009-.011.008-.012a1.083,1.083,0,0,0,.1-1.12l-.08-.156H37.5a1.066,1.066,0,0,0-.3-.291A1.024,1.024,0,0,0,36.638,18.454ZM25.068,2.4l8.767,1.169L25.12,18.97a.952.952,0,0,0,.01,1.064,1.125,1.125,0,0,0,.933.5h8.353L15.229,44.262l6.776-16.924h0l0-.01a1.075,1.075,0,0,0,.067-.462.969.969,0,0,0-.186-.48l-.015-.021-.018-.018a1.252,1.252,0,0,0-.816-.381h-7.41ZM35.786,3.8v0Z" transform="translate(1.365)" fill="#fff" stroke="#fff" stroke-width="0.5"/>
  </g>
</svg>
