<svg xmlns="http://www.w3.org/2000/svg" width="125.905" height="75.567" viewBox="0 0 125.905 75.567">
  <g id="Group_5" data-name="Group 5" transform="translate(-100 -64.215)">
    <g id="Group_3" data-name="Group 3" transform="translate(0 18)">
      <g id="ng-ds-logo" transform="translate(100 46.215)">
        <path id="Path_34" data-name="Path 34" d="M5.352,51.275a2.677,2.677,0,0,1-2.713,2.969,3.544,3.544,0,0,1-1.545-.418L.44,52.18a3.28,3.28,0,0,0,1.911.641,1.633,1.633,0,0,0,1.558-1.837V46.406l1.457-.529v5.4Zm4.321.541H8.317a1.579,1.579,0,0,1-1.646-1.786V44.091l1.47-.529v6.215c0,.34.1.566.49.566H9.674Zm1.834,0h-2.1V50.344h2.1Zm1.822,0h-2.1V50.344h2.1Zm1.822,0h-2.1V50.344h2.1Zm1.822,0h-2.1V50.344h2.1Zm1.822,0H16.7V50.344h2.1Zm1.834,0h-2.1V50.344h2.1Zm1.822,0h-2.1V50.344h2.1Zm6.118,0h-2.55a2.662,2.662,0,0,1-.628-.063,3.155,3.155,0,0,1-.641.063H22.161V50.344h1.331a2.776,2.776,0,0,1-.415-1.433c-.05-1.66.729-2.944,2.311-2.944,1.558,0,2.374,1.284,2.324,2.944a3.013,3.013,0,0,1-.427,1.433h1.281Zm-2.274-3.145c0-.667-.314-1.208-.892-1.208-.552,0-.879.541-.879,1.208a1.806,1.806,0,0,0,.892,1.672,1.94,1.94,0,0,0,.879-1.672Zm-.9-3.823a.88.88,0,1,1,.776-.868.836.836,0,0,1-.778.865Zm5,6.97h-2.1V50.344h2.1Zm1.822,0h-2.1V50.344h2.1Zm1.822,0h-2.1V50.344h2.1Zm1.834,0h-2.1V50.344h2.1Zm1.822,0h-2.1V50.344h2.1Zm1.822,0h-2.1V50.344h2.1Zm-.277,0V50.344h1.319V44.279l1.457-.49v3.749a3.57,3.57,0,0,1,2.6-1.5c2.047-.025,3.178,1.711,3.178,3.888v1.887Zm7.1-1.472c-.038-1.573-.452-2.793-1.646-2.807-1.395-.013-2.475,1.548-2.651,2.807Zm-1.647-5.424a.88.88,0,1,1,.776-.868.855.855,0,0,1-.776.868Zm15.176,4.554a2.144,2.144,0,0,1-2.285,2.353H52.9a2.108,2.108,0,0,1-2.274-2.389V48.155l1.457-1.384v2.642c0,.616.277.944.829.944h4.623c.552,0,.867-.315.867-.956V46.418l1.457-.529v3.584Zm-5.63-2.429a.88.88,0,1,1,.776-.868.855.855,0,0,1-.776.868Zm2.035,0a.88.88,0,1,1,.776-.868.855.855,0,0,1-.775.868Zm7.915,4.778H62.823a1.579,1.579,0,0,1-1.645-1.786V44.1l1.47-.529V49.79c0,.34.1.566.49.566H64.18v1.472Zm1.834,0h-2.1V50.357h2.1Zm1.822,0h-2.1V50.357h2.1Zm1.822,0h-2.1V50.357h2.1Zm1.822,0h-2.1V50.357h2.1Zm1.834,0h-2.1V50.357h2.1Zm1.822,0h-2.1V50.357h2.1Zm1.822,0h-2.1V50.357h2.1Zm1.822,0h-2.1V50.357h2.1Zm-.264,0V50.357h.742c.578,0,.867-.327.867-.994v-.4c-.025-1.736.754-2.969,2.374-2.969s2.374,1.245,2.349,2.969c.025,1.7-.754,2.957-2.349,2.957a2.373,2.373,0,0,1-1.57-.566,1.778,1.778,0,0,1-1.357.478ZM82.5,47.472c-.591,0-.879.541-.879,1.485s.289,1.472.879,1.472.867-.529.867-1.472-.288-1.482-.866-1.482Zm9.786,4.353H85.839l.867-1.472h2.588V48.58a1.04,1.04,0,0,0-1.143-1.145,2.118,2.118,0,0,0-1.407.906v-1.52a2.54,2.54,0,0,1,1.508-.83,2.185,2.185,0,0,1,2.5,2.378v1.988H92.3v1.472Zm1.822,0h-2.1V50.357h2.1Zm1.834.013h-2.1V50.369h2.1Zm1.822,0h-2.1V50.369h2.1Zm1.822,0h-2.1V50.369h2.1Zm1.822,0h-2.1V50.369h2.1Zm1.822,0h-2.085V50.369h2.1V51.84Zm7.324,0h-7.585V50.369h4.648V49.69c-.013-1.145-.327-2.2-1.382-2.2a2.21,2.21,0,0,0-1.683.855l-.9-1.006a3.251,3.251,0,0,1,2.6-1.346c1.784,0,2.927,1.4,2.867,3.573v.805h1.457V51.84Zm-4.36-7.058a.88.88,0,1,1,.776-.868.855.855,0,0,1-.776.871Zm6.181,7.058h-2.1V50.369h2.1Zm1.834,0h-2.1V50.369h2.1Zm1.822,0h-2.1V50.369h2.1Zm1.822,0h-2.1V50.369h2.1Zm1.822,0h-2.1V50.369h2.1Zm1.822,0h-2.1V50.369h2.1Zm3-2.353a2.144,2.144,0,0,1-2.286,2.353h-.98V50.369h.942c.552,0,.867-.315.867-.956v-5.3l1.457-.529v5.9Z" transform="translate(-0.44 11.005)"/>
        <g id="Group_271" data-name="Group 271" transform="translate(0.063 68.356)">
          <path id="Path_35" data-name="Path 35" d="M.5,54.56H2.54a5.151,5.151,0,0,1,1.409.189,3.213,3.213,0,0,1,1.17.591,3.01,3.01,0,0,1,.793,1.069A3.8,3.8,0,0,1,6.2,57.994a3.511,3.511,0,0,1-.289,1.459,3.093,3.093,0,0,1-.768,1.057,3.268,3.268,0,0,1-1.107.657,3.835,3.835,0,0,1-1.321.226H.49ZM1.861,60h.7a3.931,3.931,0,0,0,.88-.1,1.954,1.954,0,0,0,.7-.352,1.629,1.629,0,0,0,.466-.641,2.489,2.489,0,0,0,.176-.981,1.845,1.845,0,0,0-.176-.868,1.746,1.746,0,0,0-.453-.616,1.957,1.957,0,0,0-.681-.366,2.924,2.924,0,0,0-.818-.126h-.8Z" transform="translate(-0.49 -54.384)" fill="#e52a36"/>
          <path id="Path_36" data-name="Path 36" d="M8.26,54.56H9.619V57.1h2.642V54.56h1.359v6.819H12.261V58.435H9.619v2.944H8.26Z" transform="translate(1.516 -54.384)" fill="#e52a36"/>
          <path id="Path_37" data-name="Path 37" d="M15.76,58.014a4.272,4.272,0,0,1,.251-1.485,3.424,3.424,0,0,1,.692-1.135,2.919,2.919,0,0,1,1.057-.717,3.66,3.66,0,0,1,2.667,0,3.031,3.031,0,0,1,1.057.717,3.228,3.228,0,0,1,.692,1.135,4.505,4.505,0,0,1,0,2.969,3.424,3.424,0,0,1-.692,1.135,3.031,3.031,0,0,1-1.057.717,3.66,3.66,0,0,1-2.667,0,3.031,3.031,0,0,1-1.057-.717,3.228,3.228,0,0,1-.692-1.135A4.324,4.324,0,0,1,15.76,58.014Zm1.409,0a2.751,2.751,0,0,0,.139.88,1.869,1.869,0,0,0,.388.692,1.533,1.533,0,0,0,.6.453,1.863,1.863,0,0,0,2.189-.453,2.193,2.193,0,0,0,.39-.692,2.807,2.807,0,0,0,.139-.88,2.867,2.867,0,0,0-.139-.88,2.031,2.031,0,0,0-.39-.7,1.533,1.533,0,0,0-.6-.453,1.863,1.863,0,0,0-2.189.452,2.193,2.193,0,0,0-.39.692,3.013,3.013,0,0,0-.136.893Z" transform="translate(3.421 -54.416)" fill="#e52a36"/>
          <path id="Path_38" data-name="Path 38" d="M24.33,54.57h4.139v1.384H25.686v1.382h2.579v1.384H25.686v2.654H24.33Z" transform="translate(5.618 -54.381)" fill="#e52a36"/>
          <path id="Path_39" data-name="Path 39" d="M32.68,54.57h1.135l2.68,6.819H34.957l-.529-1.447h-2.4l-.516,1.447H30Zm.515,1.989-.755,2.126h1.51Z" transform="translate(7.069 -54.381)" fill="#e52a36"/>
          <path id="Path_40" data-name="Path 40" d="M38.14,54.57h2.389a4.045,4.045,0,0,1,.9.1,1.911,1.911,0,0,1,.742.34,1.617,1.617,0,0,1,.5.641,2.335,2.335,0,0,1,.189.994,2.181,2.181,0,0,1-.34,1.233,1.485,1.485,0,0,1-.994.641L43.1,61.4H41.461l-1.3-2.73H39.5V61.4H38.14ZM39.5,57.4H40.3c.126,0,.251,0,.39-.013a1.036,1.036,0,0,0,.365-.088.787.787,0,0,0,.277-.226.717.717,0,0,0,.113-.428.776.776,0,0,0-.1-.418.864.864,0,0,0-.239-.239.9.9,0,0,0-.34-.113,1.9,1.9,0,0,0-.377-.025h-.9Z" transform="translate(9.155 -54.381)" fill="#e52a36"/>
          <path id="Path_41" data-name="Path 41" d="M52.82,56.267a1.03,1.03,0,0,0-.453-.34,1.44,1.44,0,0,0-.541-.113,1.241,1.241,0,0,0-.3.038,1.029,1.029,0,0,0-.3.126.732.732,0,0,0-.226.214.554.554,0,0,0-.088.327.593.593,0,0,0,.214.478,1.739,1.739,0,0,0,.529.277q.321.113.679.226a2.608,2.608,0,0,1,.679.327,1.763,1.763,0,0,1,.529.566,1.888,1.888,0,0,1,.214.956,2.457,2.457,0,0,1-.189.994,2.091,2.091,0,0,1-.516.7,2.009,2.009,0,0,1-.755.418,3.1,3.1,0,0,1-.906.139,2.954,2.954,0,0,1-1.12-.2,2.766,2.766,0,0,1-.956-.657l.969-1.17a1.481,1.481,0,0,0,.529.478,1.364,1.364,0,0,0,.657.164,1.561,1.561,0,0,0,.34-.038,1.089,1.089,0,0,0,.3-.126.616.616,0,0,0,.214-.226.653.653,0,0,0,.088-.315.637.637,0,0,0-.214-.49,2.179,2.179,0,0,0-.541-.3c-.214-.088-.453-.164-.692-.251a3.217,3.217,0,0,1-.692-.34,1.894,1.894,0,0,1-.541-.554,1.771,1.771,0,0,1-.214-.919,2.15,2.15,0,0,1,.2-.969,1.918,1.918,0,0,1,.529-.692A2.009,2.009,0,0,1,51,54.576a3,3,0,0,1,.88-.139,2.963,2.963,0,0,1,1.006.164,2.266,2.266,0,0,1,.88.554Z" transform="translate(12.017 -54.407)" fill="#e52a36"/>
          <path id="Path_42" data-name="Path 42" d="M56.2,54.58h4.2v1.386H57.574v1.27h2.68V58.62h-2.68V60h2.994v1.4H56.213Z" transform="translate(13.782 -54.379)" fill="#e52a36"/>
          <path id="Path_43" data-name="Path 43" d="M63.02,54.58h2.389a4.045,4.045,0,0,1,.9.1,1.911,1.911,0,0,1,.742.34,1.617,1.617,0,0,1,.5.641,2.375,2.375,0,0,1,.189.994,2.181,2.181,0,0,1-.34,1.233,1.485,1.485,0,0,1-.994.641L67.977,61.4H66.341l-1.3-2.73h-.667V61.4H63.02ZM64.379,57.4h.805c.126,0,.251,0,.39-.013a1.036,1.036,0,0,0,.365-.088.787.787,0,0,0,.277-.226.717.717,0,0,0,.113-.428.776.776,0,0,0-.1-.418.864.864,0,0,0-.239-.239,1.346,1.346,0,0,0-.34-.113,1.9,1.9,0,0,0-.377-.025h-.9Z" transform="translate(15.528 -54.379)" fill="#e52a36"/>
          <path id="Path_44" data-name="Path 44" d="M69.53,54.58h1.548L72.6,59.046h.013l1.558-4.466H75.63L73.078,61.4H71.983Z" transform="translate(17.194 -54.379)" fill="#e52a36"/>
          <path id="Path_45" data-name="Path 45" d="M77.37,54.58h1.359V61.4H77.37Z" transform="translate(19.209 -54.379)" fill="#e52a36"/>
          <path id="Path_46" data-name="Path 46" d="M86.041,56.4a1.544,1.544,0,0,0-.49-.418,1.426,1.426,0,0,0-.679-.151,1.54,1.54,0,0,0-.717.164,1.956,1.956,0,0,0-.566.453,2.165,2.165,0,0,0-.377.692,2.807,2.807,0,0,0-.139.88,2.751,2.751,0,0,0,.139.88,2.259,2.259,0,0,0,.365.692,1.47,1.47,0,0,0,.554.453,1.588,1.588,0,0,0,.679.164,1.406,1.406,0,0,0,1.27-.73l1.135.931a2.412,2.412,0,0,1-.994.9,2.9,2.9,0,0,1-1.233.289,3.545,3.545,0,0,1-1.336-.251,3.03,3.03,0,0,1-1.057-.717,3.229,3.229,0,0,1-.692-1.135,4.505,4.505,0,0,1,0-2.969,3.424,3.424,0,0,1,.692-1.135,2.919,2.919,0,0,1,1.057-.713,3.544,3.544,0,0,1,1.334-.251,2.708,2.708,0,0,1,.541.05,2.8,2.8,0,0,1,.554.164,2.094,2.094,0,0,1,.529.315,2.358,2.358,0,0,1,.453.478Z" transform="translate(20.274 -54.42)" fill="#e52a36"/>
          <path id="Path_47" data-name="Path 47" d="M89.22,54.59h4.2v1.384H90.591v1.27H93.27v1.384H90.591v1.384h2.994V61.4H89.233Z" transform="translate(22.228 -54.376)" fill="#e52a36"/>
          <path id="Path_48" data-name="Path 48" d="M99.19,56.281a1.03,1.03,0,0,0-.453-.34,1.439,1.439,0,0,0-.541-.113,1.241,1.241,0,0,0-.3.038,1.029,1.029,0,0,0-.3.126.732.732,0,0,0-.226.214.554.554,0,0,0-.088.327.593.593,0,0,0,.214.478,1.739,1.739,0,0,0,.529.277q.321.113.679.226a2.608,2.608,0,0,1,.679.327,1.764,1.764,0,0,1,.529.566,1.888,1.888,0,0,1,.214.956,2.457,2.457,0,0,1-.189.994,1.971,1.971,0,0,1-.516.7,2.009,2.009,0,0,1-.755.418,3.1,3.1,0,0,1-.906.139,3,3,0,0,1-1.12-.2,2.766,2.766,0,0,1-.956-.657l.968-1.169a1.482,1.482,0,0,0,.529.478,1.363,1.363,0,0,0,.657.164,1.561,1.561,0,0,0,.34-.038,1.089,1.089,0,0,0,.3-.126.616.616,0,0,0,.214-.226.653.653,0,0,0,.088-.315.637.637,0,0,0-.214-.49,1.971,1.971,0,0,0-.541-.3c-.214-.088-.453-.164-.692-.251a3.216,3.216,0,0,1-.692-.34,1.894,1.894,0,0,1-.541-.554,1.771,1.771,0,0,1-.214-.919,2.15,2.15,0,0,1,.2-.969,1.918,1.918,0,0,1,.529-.692,2.109,2.109,0,0,1,.755-.418,2.931,2.931,0,0,1,.88-.139,2.963,2.963,0,0,1,1.006.164,2.361,2.361,0,0,1,.88.554Z" transform="translate(23.896 -54.407)" fill="#e52a36"/>
        </g>
        <g id="Group_272" data-name="Group 272" transform="translate(0.122)">
          <path id="Path_49" data-name="Path 49" d="M53.779,23.01a13.589,13.589,0,0,0-4.869.9c-1.233.541-1.66.868-1.66,2.4V38.661H51.2V27.023a7.324,7.324,0,0,1,2.654-.453,2.105,2.105,0,0,1,2.277,2.214v9.876h3.875V29.25c0-4.253-1.975-6.24-6.228-6.24" transform="translate(11.425 5.939)"/>
          <path id="Path_50" data-name="Path 50" d="M86.31,23.012a10.094,10.094,0,0,0-4.416,1.158,6.271,6.271,0,0,0-4.038-1.158,12.789,12.789,0,0,0-4.872,1.006c-1.019.49-1.359.9-1.359,2.29V38.662h3.95V27.025a6.841,6.841,0,0,1,2.315-.453c1.346,0,2.013.742,2.013,2.214v9.876h3.875v-9.41a10.049,10.049,0,0,0-.2-2.139,6.664,6.664,0,0,1,2.506-.53c1.334,0,2.013.742,2.013,2.214v9.877h3.875V28.85c0-3.988-1.8-5.838-5.662-5.838" transform="translate(17.632 5.95)"/>
          <path id="Path_51" data-name="Path 51" d="M101.89,35.362V27.927c0-3.07-2.189-4.907-5.85-4.907a17.859,17.859,0,0,0-4.919.83L91,23.888l.591,3.285.151-.038a17.715,17.715,0,0,1,4.127-.7c2.15,0,2.378,1.4,2.378,2,0,.44-.013.855-.025,1.069H95.184c-3.51,0-5.674,1.8-5.674,4.693,0,3.246,2.68,4.693,5.334,4.693a9.347,9.347,0,0,0,3.46-.657,3.92,3.92,0,0,1,1.245-.315,2.74,2.74,0,0,1,1.7.657c.2.126.453.289.742.465l.126.075,1.422-2.718Zm-3.674-3.106V35.2a2.412,2.412,0,0,0-.667.214,4.778,4.778,0,0,1-2.09.428c-1.472,0-2.114-.5-2.114-1.686,0-1.409,1.27-1.9,2.353-1.9Z" transform="translate(22.244 5.941)"/>
          <path id="Path_52" data-name="Path 52" d="M71.37,27.927c0-3.07-2.189-4.907-5.85-4.907a17.859,17.859,0,0,0-4.919.83l-.126.038.591,3.285.151-.038a17.6,17.6,0,0,1,4.127-.7c2.15,0,2.378,1.4,2.378,2,0,.44-.013.855-.025,1.069H64.664c-3.5,0-5.674,1.8-5.674,4.693,0,3.246,2.68,4.693,5.334,4.693a9.484,9.484,0,0,0,3.473-.657,3.842,3.842,0,0,1,1.245-.315,2.74,2.74,0,0,1,1.7.657c.214.126.453.289.742.465l.139.075,1.422-2.718L71.4,35.362ZM67.7,32.242v2.944a2.286,2.286,0,0,0-.667.214,4.711,4.711,0,0,1-2.076.428c-1.472,0-2.1-.5-2.1-1.686,0-1.409,1.27-1.9,2.34-1.9Z" transform="translate(14.43 5.941)"/>
          <path id="Path_53" data-name="Path 53" d="M56.734,16.583h0l-.34-.013c-.189,0-.377-.013-.554-.013a5.4,5.4,0,0,1-2.5-.843,2.473,2.473,0,0,1-1.27-2.34,2.307,2.307,0,0,1,.956-1.938,3.717,3.717,0,0,1,2.3-.7,9.954,9.954,0,0,1,2.479.315.5.5,0,0,0,.164.025l.239-.05.855-2.881-.277-.088A14.02,14.02,0,0,0,54.8,7.487a6.9,6.9,0,0,0-4.517,1.485,5.849,5.849,0,0,0-1.911,4.466,6.613,6.613,0,0,0,1.27,3.875c-.9.214-1.635.44-2.2.616l-.277.088.969,3.4.289-.1a24.185,24.185,0,0,1,7.247-1.233,14.68,14.68,0,0,1,3.584.418l.289.088.868-3.422-.289-.075a17.965,17.965,0,0,0-3.384-.5" transform="translate(11.401 1.936)"/>
          <path id="Path_54" data-name="Path 54" d="M105.335,16.125c0,1.032-.352,2.389-3.447,2.415h-.2c-2.176,0-2.453-.843-2.453-1.573,0-4.466-2.693-7.461-6.706-7.461-4.076,0-6.57,2.705-6.832,7.436-.113,1.334-1.195,1.485-2.831,1.573l-.277.013H67.706c-2.6,0-3.133-1.006-3.133-2.5V2.45l-4.353.49V16.1c0,3.975,2.554,6.316,7.033,6.454l16.418.013a7.988,7.988,0,0,0,3.183-.579,6.246,6.246,0,0,0,5.662,3.133h0a6.049,6.049,0,0,0,5.7-3.271,9.775,9.775,0,0,0,3.372.692v.013l.277-.013h.013l.3.013v-.013l.579-.013c4.34-.289,6.932-2.628,6.932-6.253V8.741l-4.353.49ZM95.057,17.333c0,2.793-.818,4.152-2.5,4.152-1.069,0-2.5-.44-2.5-4.253,0-3.9,1.433-4.34,2.5-4.34s2.5.453,2.5,4.441" transform="translate(14.685 0.633)"/>
          <path id="Path_55" data-name="Path 55" d="M98.11,7.292a2.44,2.44,0,1,0-2.44-2.439,2.44,2.44,0,0,0,2.44,2.439" transform="translate(23.834 0.621)" fill="#734278"/>
          <path id="Path_56" data-name="Path 56" d="M33.64,2.448s5.548-.793,7.008,4.579c.465,1.7.214,5.875-4.932,8.392,1.346-5.938.277-10.154-2.076-12.971" transform="translate(7.943 0.621)" fill="#e52a36"/>
          <path id="Path_57" data-name="Path 57" d="M20.1,27.1c5.208,4.73,14.028,6.177,18.142,3.548a13.913,13.913,0,0,0,6.089-9.008c-1.623,1.56-8.481,4.328-15.123,2.881A19.04,19.04,0,0,1,20.1,27.1" transform="translate(4.468 5.585)" fill="#e52a36"/>
          <path id="Path_58" data-name="Path 58" d="M29.82,24.4c4.5.906,10.14-1.447,11.864-4.177,2.252-3.548,1.183-9.511,1.183-9.511a10.711,10.711,0,0,1-7.548,7.008A15.378,15.378,0,0,1,29.823,24.4" transform="translate(6.961 2.764)" fill="#e52a36"/>
          <path id="Path_59" data-name="Path 59" d="M32.831,9.1c0,5.017-3.259,9.1-7.272,9.1S18.3,14.116,18.3,9.1,21.559,0,25.572,0s7.259,4.076,7.259,9.1" transform="translate(4.011)" fill="#e52a36"/>
          <path id="Path_60" data-name="Path 60" d="M12.078,3S5.472,9.077,7.813,20.01s12.58,15.16,19.5,17.689a58.214,58.214,0,0,0,13.663,3.2S32.371,51.173,14.82,45.361.239,17.455,1.65,12.663c0,0,2.807-12.594,10.43-9.662" transform="translate(-0.537 0.66)" fill="#e52a36"/>
        </g>
      </g>
    </g>
  </g>
</svg>
