<svg id="Group_272" data-name="Group 272" xmlns="http://www.w3.org/2000/svg" width="169.271" height="64.328" viewBox="0 0 169.271 64.328">
  <path id="Path_49" data-name="Path 49" d="M56.037,23.01a18.288,18.288,0,0,0-6.552,1.206c-1.659.728-2.235,1.168-2.235,3.234V44.071h5.316V28.411a9.856,9.856,0,0,1,3.572-.609,2.833,2.833,0,0,1,3.065,2.98V44.071h5.215V31.408c0-5.723-2.658-8.4-8.381-8.4" transform="translate(31.711 15.948)" fill="#fff"/>
  <path id="Path_50" data-name="Path 50" d="M91.387,23.016a13.584,13.584,0,0,0-5.942,1.558,8.44,8.44,0,0,0-5.434-1.558,17.211,17.211,0,0,0-6.556,1.354c-1.371.66-1.829,1.206-1.829,3.082V44.077h5.316V28.417a9.206,9.206,0,0,1,3.115-.609c1.812,0,2.709,1,2.709,2.98V44.077H87.98V31.414a13.523,13.523,0,0,0-.271-2.878,8.968,8.968,0,0,1,3.373-.713c1.795,0,2.709,1,2.709,2.98V44.094h5.215V30.872c0-5.367-2.421-7.856-7.619-7.856" transform="translate(48.491 15.959)" fill="#fff"/>
  <path id="Path_51" data-name="Path 51" d="M106.17,39.629V29.623c0-4.131-2.946-6.6-7.873-6.6a24.033,24.033,0,0,0-6.62,1.117l-.166.051.8,4.421.2-.051a23.84,23.84,0,0,1,5.553-.948c2.894,0,3.2,1.879,3.2,2.692,0,.592-.017,1.151-.034,1.439H97.146c-4.724,0-7.636,2.421-7.636,6.315,0,4.368,3.607,6.315,7.179,6.315a12.578,12.578,0,0,0,4.656-.884,5.275,5.275,0,0,1,1.676-.424,3.687,3.687,0,0,1,2.286.884c.271.17.609.389,1,.626l.17.1,1.913-3.657Zm-4.944-4.18v3.959a3.246,3.246,0,0,0-.9.288,6.43,6.43,0,0,1-2.813.576c-1.981,0-2.845-.678-2.845-2.269,0-1.9,1.71-2.557,3.166-2.557Z" transform="translate(60.882 15.955)" fill="#fff"/>
  <path id="Path_52" data-name="Path 52" d="M75.65,29.623c0-4.131-2.946-6.6-7.873-6.6a24.033,24.033,0,0,0-6.62,1.117l-.17.051.8,4.421.2-.051a23.689,23.689,0,0,1,5.553-.948c2.894,0,3.2,1.879,3.2,2.692,0,.592-.017,1.151-.034,1.439h-4.08c-4.707,0-7.636,2.421-7.636,6.315,0,4.368,3.607,6.315,7.179,6.315a12.763,12.763,0,0,0,4.673-.884,5.171,5.171,0,0,1,1.676-.424,3.687,3.687,0,0,1,2.286.884c.288.17.609.389,1,.626l.186.1L77.9,41.017l-2.218-1.388ZM70.706,35.43v3.962a3.077,3.077,0,0,0-.9.288,6.339,6.339,0,0,1-2.794.576c-1.981,0-2.828-.678-2.828-2.269,0-1.9,1.71-2.557,3.149-2.557Z" transform="translate(39.814 15.955)" fill="#fff"/>
  <path id="Path_53" data-name="Path 53" d="M60.045,19.729h0l-.457-.017c-.254,0-.508-.017-.745-.017a7.265,7.265,0,0,1-3.371-1.134,3.328,3.328,0,0,1-1.71-3.149A3.1,3.1,0,0,1,55.047,12.8a5,5,0,0,1,3.1-.948,13.4,13.4,0,0,1,3.336.424.676.676,0,0,0,.22.034l.322-.068,1.151-3.877L62.8,8.251a18.867,18.867,0,0,0-5.367-.762,9.279,9.279,0,0,0-6.078,2A7.871,7.871,0,0,0,48.785,15.5a8.9,8.9,0,0,0,1.71,5.215c-1.206.288-2.2.592-2.963.83l-.372.118,1.3,4.571.389-.136a32.547,32.547,0,0,1,9.753-1.659A19.755,19.755,0,0,1,63.429,25l.389.118,1.168-4.6-.389-.1a24.177,24.177,0,0,0-4.554-.678" transform="translate(31.648 5.193)" fill="#fff"/>
  <path id="Path_54" data-name="Path 54" d="M120.934,20.853c0,1.388-.474,3.215-4.639,3.25h-.271c-2.929,0-3.3-1.134-3.3-2.116,0-6.011-3.623-10.04-9.024-10.04-5.486,0-8.842,3.64-9.194,10.006-.153,1.795-1.608,2-3.809,2.116l-.372.017H70.294c-3.5,0-4.216-1.354-4.216-3.369V2.45l-5.858.66V20.816c0,5.35,3.437,8.5,9.465,8.686l22.094.017a10.75,10.75,0,0,0,4.283-.779,8.406,8.406,0,0,0,7.619,4.216h0a8.141,8.141,0,0,0,7.67-4.4,13.154,13.154,0,0,0,4.537.932V29.5l.372-.017h.017l.407.017v-.017l.779-.017c5.841-.389,9.329-3.537,9.329-8.415V10.915l-5.858.66ZM107.1,22.479c0,3.758-1.1,5.587-3.369,5.587-1.439,0-3.369-.592-3.369-5.723,0-5.249,1.929-5.841,3.369-5.841,1.456,0,3.369.609,3.369,5.977" transform="translate(40.582 1.698)" fill="#fff"/>
  <path id="Path_55" data-name="Path 55" d="M98.954,8.98A3.284,3.284,0,1,0,95.67,5.7,3.284,3.284,0,0,0,98.954,8.98" transform="translate(65.151 1.67)" fill="#fff"/>
  <path id="Path_56" data-name="Path 56" d="M33.64,2.462S41.106,1.4,43.071,8.625c.626,2.286.288,7.907-6.637,11.293,1.812-7.991.372-13.664-2.794-17.456" transform="translate(22.32 1.668)" fill="#fff"/>
  <path id="Path_57" data-name="Path 57" d="M20.1,28.988c7.009,6.366,18.878,8.313,24.414,4.774A18.723,18.723,0,0,0,52.709,21.64c-2.184,2.1-11.414,5.824-20.351,3.877A25.623,25.623,0,0,1,20.1,28.988" transform="translate(12.962 14.998)" fill="#fff"/>
  <path id="Path_58" data-name="Path 58" d="M29.82,29.13c6.061,1.219,13.646-1.947,15.966-5.621,3.03-4.774,1.591-12.8,1.591-12.8a14.414,14.414,0,0,1-10.158,9.431,20.7,20.7,0,0,1-7.395,8.99" transform="translate(19.678 7.423)" fill="#fff"/>
  <path id="Path_59" data-name="Path 59" d="M37.855,12.241c0,6.752-4.385,12.241-9.786,12.241S18.3,19,18.3,12.241C18.3,5.466,22.685,0,28.086,0s9.769,5.486,9.769,12.241" transform="translate(11.725)" fill="#fff"/>
  <path id="Path_60" data-name="Path 60" d="M16.068,3.154s-8.889,8.177-5.739,22.889,16.93,20.4,26.242,23.8a78.34,78.34,0,0,0,18.387,4.3s-11.58,13.832-35.2,6.011C-3.86,52.32.136,22.606,2.035,16.156c0,0,3.778-16.948,14.036-13" transform="translate(-0.537 1.773)" fill="#fff"/>
</svg>
