<svg xmlns="http://www.w3.org/2000/svg" width="44.529" height="50.613" viewBox="0 0 44.529 50.613">
  <g id="Group_3941" data-name="Group 3941" transform="translate(-22.86 -2.83)">
    <path id="Path_10" data-name="Path 10" d="M55.228,30.018A1.16,1.16,0,1,1,56.6,31.889l-7.65,5.622a6.38,6.38,0,0,1-7.651,0L26,26.267a6.428,6.428,0,0,1,0-10.418L41.3,4.6a6.38,6.38,0,0,1,7.651,0l15.3,11.244a6.428,6.428,0,0,1,0,10.418,1.161,1.161,0,0,1-1.373-1.873,4.106,4.106,0,0,0,0-6.673L47.577,6.475a4.082,4.082,0,0,0-4.908,0l-15.3,11.246a4.106,4.106,0,0,0,0,6.673l15.3,11.244a4.082,4.082,0,0,0,4.908,0l7.65-5.622ZM35.021,26.255a1.16,1.16,0,1,1-1.371-1.871l7.65-5.622a6.38,6.38,0,0,1,7.651,0l15.3,11.244a6.428,6.428,0,0,1,0,10.418L48.95,51.668a6.38,6.38,0,0,1-7.651,0L26,40.424a6.428,6.428,0,0,1,0-10.418,1.161,1.161,0,0,1,1.373,1.873,4.106,4.106,0,0,0,0,6.673L42.672,49.8a4.082,4.082,0,0,0,4.908,0l15.3-11.244a4.106,4.106,0,0,0,0-6.673L47.58,20.634a4.082,4.082,0,0,0-4.908,0l-7.65,5.622Z" transform="translate(0)" fill="#fff" stroke="#fff" stroke-width="1"/>
  </g>
</svg>
