<svg id="instagram-svgrepo-com" xmlns="http://www.w3.org/2000/svg" width="24.326" height="24.326" viewBox="0 0 24.326 24.326">
  <path id="Path_1738" data-name="Path 1738" d="M12.634,19.269A6.634,6.634,0,1,0,6,12.634,6.634,6.634,0,0,0,12.634,19.269Zm0-2.211a4.423,4.423,0,1,0-4.423-4.423A4.423,4.423,0,0,0,12.634,17.057Z" transform="translate(-0.471 -0.471)" fill="#fff" fill-rule="evenodd"/>
  <path id="Path_1739" data-name="Path 1739" d="M18.106,5a1.106,1.106,0,1,0,1.106,1.106A1.106,1.106,0,0,0,18.106,5Z" transform="translate(0.692 -0.577)" fill="#fff"/>
  <path id="Path_1740" data-name="Path 1740" d="M1.723,4.622C1,6.042,1,7.9,1,11.615v3.1c0,3.716,0,5.573.723,6.993a6.634,6.634,0,0,0,2.9,2.9c1.419.723,3.277.723,6.993.723h3.1c3.716,0,5.573,0,6.993-.723a6.634,6.634,0,0,0,2.9-2.9c.723-1.419.723-3.277.723-6.993v-3.1c0-3.716,0-5.573-.723-6.993a6.634,6.634,0,0,0-2.9-2.9C20.285,1,18.427,1,14.711,1h-3.1C7.9,1,6.042,1,4.622,1.723A6.634,6.634,0,0,0,1.723,4.622ZM14.711,3.211h-3.1c-1.894,0-3.182,0-4.177.083a4.773,4.773,0,0,0-1.811.4A4.423,4.423,0,0,0,3.694,5.626a4.773,4.773,0,0,0-.4,1.811c-.081,1-.083,2.283-.083,4.177v3.1c0,1.894,0,3.182.083,4.177a4.773,4.773,0,0,0,.4,1.811,4.423,4.423,0,0,0,1.933,1.933,4.772,4.772,0,0,0,1.811.4c1,.081,2.283.083,4.177.083h3.1c1.894,0,3.182,0,4.177-.083a4.772,4.772,0,0,0,1.811-.4A4.423,4.423,0,0,0,22.633,20.7a4.772,4.772,0,0,0,.4-1.811c.081-1,.083-2.283.083-4.177v-3.1c0-1.894,0-3.182-.083-4.177a4.772,4.772,0,0,0-.4-1.811A4.423,4.423,0,0,0,20.7,3.694a4.773,4.773,0,0,0-1.811-.4C17.893,3.213,16.605,3.211,14.711,3.211Z" transform="translate(-1 -1)" fill="#fff" fill-rule="evenodd"/>
</svg>
