<svg xmlns="http://www.w3.org/2000/svg" width="51.975" height="34.899" viewBox="0 0 51.975 34.899">
  <g id="meter-7-svgrepo-com" transform="translate(0.25 -84.672)">
    <path id="Path_8630" data-name="Path 8630" d="M242.5,141.73a1.7,1.7,0,1,0-1.7,1.7A1.7,1.7,0,0,0,242.5,141.73Z" transform="translate(-215.06 -49.569)" fill="#fff"/>
    <path id="Path_8631" data-name="Path 8631" d="M58.345,322.484a1.7,1.7,0,1,0,1.7,1.7A1.7,1.7,0,0,0,58.345,322.484Z" transform="translate(-50.951 -213.678)" fill="#fff"/>
    <path id="Path_8632" data-name="Path 8632" d="M110.584,193.968a1.7,1.7,0,1,0,2.4,0A1.7,1.7,0,0,0,110.584,193.968Z" transform="translate(-99.02 -97.635)" fill="#fff"/>
    <path id="Path_8633" data-name="Path 8633" d="M368.61,193.968a1.7,1.7,0,1,0,2.4,0A1.7,1.7,0,0,0,368.61,193.968Z" transform="translate(-331.103 -97.635)" fill="#fff"/>
    <path id="Path_8634" data-name="Path 8634" d="M423.249,322.484a1.7,1.7,0,1,0,1.7,1.7A1.7,1.7,0,0,0,423.249,322.484Z" transform="translate(-379.169 -213.678)" fill="#fff"/>
    <path id="Path_8635" data-name="Path 8635" d="M224.065,196.343a.375.375,0,0,0-.456.166l-6.7,11.83a4.241,4.241,0,1,0,4.653,1.742l2.739-13.314A.374.374,0,0,0,224.065,196.343Zm-6.04,17.74a1.654,1.654,0,1,1,1.655-1.654A1.655,1.655,0,0,1,218.026,214.083Z" transform="translate(-192.288 -100.198)" fill="#fff"/>
    <path id="Path_8636" data-name="Path 8636" d="M43.936,92.461A25.742,25.742,0,0,0,1.5,119.321h3a22.933,22.933,0,1,1,42.473,0h3a25.757,25.757,0,0,0-6.042-26.861Z" transform="translate(0)" fill="#fff" stroke="#6f3d74" stroke-width="0.5"/>
  </g>
</svg>
