<svg xmlns="http://www.w3.org/2000/svg" width="46.41" height="44.297" viewBox="0 0 46.41 44.297">
  <g id="N" transform="translate(-1739.295 -925.852)">
    <path id="Path_56" data-name="Path 56" d="M33.64,2.445s5.141-.734,6.494,4.244c.431,1.574.2,5.445-4.57,7.777,1.248-5.5.256-9.409-1.924-12.02" transform="translate(1744.189 926.251)" fill="#fff"/>
    <path id="Path_57" data-name="Path 57" d="M20.1,26.7c4.826,4.384,13,5.724,16.812,3.288a12.893,12.893,0,0,0,5.643-8.348c-1.5,1.446-7.86,4.011-14.014,2.67A17.644,17.644,0,0,1,20.1,26.7" transform="translate(1741.962 929.439)" fill="#fff"/>
    <path id="Path_58" data-name="Path 58" d="M29.82,23.394c4.174.84,9.4-1.341,10.994-3.871,2.087-3.288,1.1-8.814,1.1-8.814a9.926,9.926,0,0,1-7,6.494,14.25,14.25,0,0,1-5.092,6.191" transform="translate(1743.561 927.627)" fill="#fff"/>
    <path id="Path_59" data-name="Path 59" d="M31.766,8.429c0,4.649-3.02,8.429-6.739,8.429S18.3,13.081,18.3,8.429,21.32,0,25.039,0s6.727,3.778,6.727,8.429" transform="translate(1741.67 925.852)" fill="#fff"/>
    <path id="Path_60" data-name="Path 60" d="M11.232,2.969S5.111,8.6,7.28,18.73,18.938,32.779,25.35,35.123a53.946,53.946,0,0,0,12.661,2.961s-7.974,9.525-24.238,4.139S.261,16.363,1.568,11.922c0,0,2.6-11.67,9.665-8.954" transform="translate(1738.758 926.275)" fill="#fff"/>
  </g>
</svg>
