<svg xmlns="http://www.w3.org/2000/svg" width="43.056" height="43.056" viewBox="0 0 43.056 43.056">
  <path id="Path_8640" data-name="Path 8640" d="M22.528,43.056A20.528,20.528,0,1,1,43.056,22.528,20.528,20.528,0,0,1,22.528,43.056ZM12.291,35.37a16.426,16.426,0,0,0,20.844-.3,14.369,14.369,0,0,0-20.844.3ZM9.423,32.422a18.478,18.478,0,0,1,26.493-.382,16.422,16.422,0,1,0-26.493.384Zm13.105-7.842a8.211,8.211,0,1,1,8.211-8.211A8.211,8.211,0,0,1,22.528,24.581Zm0-4.106a4.106,4.106,0,1,0-4.106-4.106A4.106,4.106,0,0,0,22.528,20.475Z" transform="translate(-1 -1)" fill="#fff" stroke="#723c76" stroke-width="2"/>
</svg>
