<svg xmlns="http://www.w3.org/2000/svg" width="43.487" height="38.108" viewBox="0 0 43.487 38.108">
  <path id="Path_8637" data-name="Path 8637" d="M40.551,9.164h1.985V29.335H40.551v6.051A2,2,0,0,1,38.566,37.4H2.835A2,2,0,0,1,.85,35.386V3.113A2,2,0,0,1,2.835,1.1H38.566a2,2,0,0,1,1.985,2.017Zm-3.97,20.171H24.671a10.087,10.087,0,0,1,0-20.171h11.91V5.13H4.82V33.369H36.581ZM38.566,25.3V13.2h-13.9a6.052,6.052,0,0,0,0,12.1Zm-13.9-8.068h5.955v4.034H24.671Z" transform="translate(0.05 -0.195)" fill="#fff" stroke="#7d4282" stroke-width="1.8"/>
</svg>
