<svg xmlns="http://www.w3.org/2000/svg" width="105.999" height="123.662" viewBox="0 0 105.999 123.662">
  <g id="pdf-file-svgrepo-com" transform="translate(-36.565)">
    <path id="Path_10598" data-name="Path 10598" d="M151.079,28.46v95.2H47.791V0h74.831l13.255,13.255Z" transform="translate(-8.515 -0.002)" fill="#734278"/>
    <rect id="Rectangle_2209" data-name="Rectangle 2209" width="49.537" height="22.165" transform="translate(36.565 8.283)" fill="#f2f2f2"/>
    <g id="Group_4715" data-name="Group 4715" transform="translate(44.556 12.855)">
      <g id="Group_4713" data-name="Group 4713">
        <path id="Path_10599" data-name="Path 10599" d="M79.428,55.917a4.1,4.1,0,0,0-2.367-2.349,5.184,5.184,0,0,0-1.966-.346H69.651V67.279H72.4v-5.3H75.1a5.184,5.184,0,0,0,1.966-.346,4.2,4.2,0,0,0,1.457-.947,4.053,4.053,0,0,0,.91-1.4,4.735,4.735,0,0,0,0-3.368ZM76.46,58.994a2.1,2.1,0,0,1-1.493.528H72.4v-3.86h2.567a2.037,2.037,0,0,1,1.493.546,2.1,2.1,0,0,1,0,2.786Z" transform="translate(-69.651 -53.223)" fill="#734278"/>
        <path id="Path_10600" data-name="Path 10600" d="M132.6,58.666c-.018-.492-.036-.928-.091-1.329a5.207,5.207,0,0,0-.273-1.111,3.973,3.973,0,0,0-.51-.947,4.634,4.634,0,0,0-1.766-1.566,5.721,5.721,0,0,0-2.476-.492h-5.061V67.278h5.061a5.721,5.721,0,0,0,2.476-.492,4.634,4.634,0,0,0,1.766-1.566,3.973,3.973,0,0,0,.51-.947,5.212,5.212,0,0,0,.273-1.111c.055-.4.073-.838.091-1.329.018-.473.018-1,.018-1.584S132.615,59.139,132.6,58.666Zm-2.749,3a7.906,7.906,0,0,1-.073,1.038,3.163,3.163,0,0,1-.164.71,2.019,2.019,0,0,1-.309.546,2.447,2.447,0,0,1-2.057.856H125.15V55.662h2.094a2.457,2.457,0,0,1,2.057.874,1.912,1.912,0,0,1,.309.528,3.331,3.331,0,0,1,.164.728,7.605,7.605,0,0,1,.073,1.019c.018.4.018.892.018,1.438S129.866,61.269,129.847,61.67Z" transform="translate(-109.674 -53.222)" fill="#734278"/>
        <path id="Path_10601" data-name="Path 10601" d="M184.077,55.662v-2.44H174.81V67.278h2.749v-5.7h5.553V59.121h-5.553V55.662Z" transform="translate(-149.411 -53.222)" fill="#734278"/>
      </g>
      <g id="Group_4714" data-name="Group 4714" transform="translate(0 0)">
        <path id="Path_10602" data-name="Path 10602" d="M79.428,55.917a4.1,4.1,0,0,0-2.367-2.349,5.184,5.184,0,0,0-1.966-.346H69.651V67.279H72.4v-5.3H75.1a5.184,5.184,0,0,0,1.966-.346,4.2,4.2,0,0,0,1.457-.947,4.053,4.053,0,0,0,.91-1.4,4.735,4.735,0,0,0,0-3.368ZM76.46,58.994a2.1,2.1,0,0,1-1.493.528H72.4v-3.86h2.567a2.037,2.037,0,0,1,1.493.546,2.1,2.1,0,0,1,0,2.786Z" transform="translate(-69.651 -53.223)" fill="#734278"/>
      </g>
    </g>
    <path id="Path_10603" data-name="Path 10603" d="M151.079,70.084v95.2H47.791V142.966L96.076,94.681l2.858-2.858,1.584-1.584,2.64-2.64,3.132-3.132,29.586-29.586Z" transform="translate(-8.515 -41.626)" fill="#040000" opacity="0.08"/>
    <path id="Path_10604" data-name="Path 10604" d="M386.06,28.461H357.6V0Z" transform="translate(-243.495)" fill="#5a2760"/>
    <g id="Group_4716" data-name="Group 4716" transform="translate(50.854 35.814)">
      <path id="Path_10605" data-name="Path 10605" d="M172.689,201.99a11.9,11.9,0,0,0-2.44-2.968,17.605,17.605,0,0,0-2.931-2.13c-4.479-2.64-10.869-3.914-19.554-3.914h-.874c-.473-.437-.965-.874-1.475-1.329a39.043,39.043,0,0,1-7.956-9.777c4.006-8.831,5.917-16.7,5.681-23.4a12.542,12.542,0,0,0-.492-3.168,10.258,10.258,0,0,0-2.185-4.133l-.036-.036a8.33,8.33,0,0,0-6.172-2.858,7.737,7.737,0,0,0-5.99,2.84,11.286,11.286,0,0,0-2.385,7.246A62.123,62.123,0,0,0,126.953,171c.073.31.128.619.2.928a47.575,47.575,0,0,0,3.35,10.05c-1.711,3.478-3.441,6.482-4.643,8.521-.91,1.548-1.912,3.168-2.95,4.789a71.4,71.4,0,0,0-12.108,3.132A31.119,31.119,0,0,0,99.679,204.9a12.782,12.782,0,0,0-3.514,5.317,8.014,8.014,0,0,0,.109,5.535,7.857,7.857,0,0,0,3.314,3.823,8.4,8.4,0,0,0,1.147.564,10,10,0,0,0,3.769.728,13.632,13.632,0,0,0,8.921-3.714c4.989-4.461,10.141-11.634,13.182-16.168,2.494-.382,5.207-.71,8.266-1.038,3.605-.364,6.791-.583,9.686-.692q1.338,1.2,2.567,2.294a102.692,102.692,0,0,0,11.143,9.049c0,.018.018.018.036.018a27.15,27.15,0,0,0,3.605,2.039,9.529,9.529,0,0,0,4.06.947,8.183,8.183,0,0,0,4.752-1.493,7.545,7.545,0,0,0,2.84-4.06A8.092,8.092,0,0,0,172.689,201.99Zm-40.256-36.469a55.69,55.69,0,0,1-.328-7.083c.036-2.349.892-3.933,2.148-3.933.947,0,1.948.856,2.4,2.494a7.578,7.578,0,0,1,.237,1.693c.036.765.018,1.566-.018,2.385a35.983,35.983,0,0,1-1.2,7.41,51.14,51.14,0,0,1-1.639,5.3A44.61,44.61,0,0,1,132.434,165.521Zm-30.369,47.921c-.31-.765.036-2.239,1.93-4.06,2.895-2.767,7.428-4.952,13.746-6.609-1.2,1.639-2.385,3.132-3.532,4.5a48.93,48.93,0,0,1-4.934,5.244,7.837,7.837,0,0,1-4.06,2.076,4.656,4.656,0,0,1-.71.055A2.515,2.515,0,0,1,102.064,213.442Zm29.095-19.354.128-.2-.2.036a1.16,1.16,0,0,1,.146-.255c.765-1.293,1.73-2.95,2.767-4.861l.091.2.237-.492c.765,1.092,1.6,2.167,2.476,3.2.419.492.856.965,1.293,1.438l-.291.018.255.237c-.747.055-1.529.128-2.312.2-.492.055-1,.091-1.511.146C133.18,193.869,132.142,193.979,131.159,194.088ZM161.8,205.449a67.137,67.137,0,0,1-7.574-5.936,25.058,25.058,0,0,1,9.941,2.749,9.391,9.391,0,0,1,2.349,1.821c.874.928,1.183,1.766,1.019,2.331a1.514,1.514,0,0,1-1.566.947,3.252,3.252,0,0,1-1.42-.346,23.637,23.637,0,0,1-2.64-1.493C161.874,205.522,161.838,205.485,161.8,205.449Z" transform="translate(-95.727 -148.279)" fill="#f2f2f2"/>
    </g>
  </g>
</svg>
