<svg xmlns="http://www.w3.org/2000/svg" width="50.705" height="50.705" viewBox="0 0 50.705 50.705">
  <g id="Group_4037" data-name="Group 4037" transform="translate(-0.75 -0.25)">
    <path id="Path_1387" data-name="Path 1387" d="M24.252,0A24.252,24.252,0,1,1,0,24.252,24.252,24.252,0,0,1,24.252,0Z" transform="translate(1.85 1.35)" fill="none" stroke="#fff" stroke-width="2.2"/>
    <path id="Path_1386" data-name="Path 1386" d="M25.8,8.249a1.9,1.9,0,0,0-3.02,0L14.207,22.641A11.084,11.084,0,0,0,12.2,29a10.949,10.949,0,0,0,3.73,8.1A12.481,12.481,0,0,0,24.3,40.334c6.555,0,12.095-5.186,12.095-11.345a11.011,11.011,0,0,0-2-6.348Z" transform="translate(1.806 1.073)" fill="rgba(0,0,0,0)" stroke="#fff" stroke-miterlimit="10" stroke-width="2.2"/>
    <path id="Path_1390" data-name="Path 1390" d="M730.279,1703.736a7.163,7.163,0,0,0,7.022,5.668" transform="translate(-711.198 -1672.896)" fill="none" stroke="#fff" stroke-linecap="round" stroke-width="1.5"/>
  </g>
</svg>
